<?xml version="1.0" encoding="utf-8"?>
<!-- Generator: Adobe Illustrator 21.0.0, SVG Export Plug-In . SVG Version: 6.00 Build 0)  -->
<svg version="1.1" xmlns="http://www.w3.org/2000/svg" xmlns:xlink="http://www.w3.org/1999/xlink" x="0px" y="0px" width="2000px"
	 height="2000px" viewBox="0 0 2000 2000" style="enable-background:new 0 0 2000 2000;" xml:space="preserve">
<style type="text/css">
	.st0{fill:#FDEED7;}
	.st1{fill:#E1CEC0;}
	.st2{fill:#DB9F25;}
	.st3{fill:#89121B;}
	.st4{fill:url(#SVGID_1_);}
	.st5{fill:url(#SVGID_2_);}
	.st6{fill:#49524F;}
	.st7{fill:url(#SVGID_3_);}
	.st8{fill:url(#SVGID_4_);}
	.st9{fill:url(#SVGID_5_);}
	.st10{fill:url(#SVGID_6_);}
	.st11{fill:url(#SVGID_7_);}
	.st12{fill:url(#SVGID_8_);}
	.st13{fill:url(#SVGID_9_);}
	.st14{fill:url(#SVGID_10_);}
	.st15{fill:url(#SVGID_11_);}
	.st16{fill:url(#SVGID_12_);}
	.st17{fill:url(#SVGID_13_);}
	.st18{fill:url(#SVGID_14_);}
	.st19{fill:url(#SVGID_15_);}
	.st20{fill:url(#SVGID_16_);}
	.st21{fill:url(#SVGID_17_);}
	.st22{fill:url(#SVGID_18_);}
	.st23{fill:url(#SVGID_19_);}
	.st24{fill:url(#SVGID_20_);}
	.st25{fill:url(#SVGID_21_);}
	.st26{fill:url(#SVGID_22_);}
	.st27{fill:url(#SVGID_23_);}
	.st28{fill:url(#SVGID_24_);}
	.st29{fill:url(#SVGID_25_);}
	.st30{fill:#F9CB70;}
	.st31{fill:url(#SVGID_26_);}
	.st32{fill:url(#SVGID_27_);}
	.st33{fill:url(#SVGID_28_);}
	.st34{fill:url(#SVGID_29_);}
	.st35{fill:#382424;}
	.st36{fill:#B15945;}
	.st37{fill:#9C3E3F;}
	.st38{fill:url(#SVGID_30_);}
	.st39{fill:url(#SVGID_31_);}
	.st40{fill:#352828;}
	.st41{fill:#7B080B;}
	.st42{fill:url(#SVGID_32_);}
	.st43{fill:url(#SVGID_33_);}
	.st44{fill:#F2E1C7;}
	.st45{fill:url(#SVGID_34_);}
	.st46{fill:url(#SVGID_35_);}
	.st47{fill:url(#SVGID_36_);}
</style>
<g id="Layer_1">
	<rect class="st0" width="2000" height="2000"/>
</g>
<g id="Layer_2">
	<path class="st1" d="M1823.7,1111.5c-25.1-118.2-44.8-237.9-20-358c22.3-107.8,67.4-212.6,62.3-324.5
		c-2.1-47.3-12.5-95.1-35.9-136.7c-24-42.6-61.5-75-106.5-93.8c-100.2-41.9-209.9-14.5-305,27.4
		c-103.6,45.6-203.4,112.9-318.8,124.2c-112.3,11-218.6-35.8-317-84.2c-100.1-49.3-199.9-102.1-312.2-116.5
		c-53.1-6.8-108.3-3.9-158.9,14.6c-44.6,16.3-84.4,43.6-115.9,79.2c-61.6,69.5-92.6,163.2-96.7,255.1c-5.5,120.9,30,238.9,65.4,353
		c35.8,115.4,73.6,233.8,69.4,356.1c-4,116.6-59,226.8-50.2,344.5c3.9,51.6,20.5,101.3,54.3,141.1c28.9,34,68,57.8,109.5,73.4
		c100.1,37.6,206.9,22,308.6-0.2c75.1-16.4,151.7-36.2,228.7-37.7c0.9,0.9,2,1.7,3.4,2.4c89.4,47.3,182.2,90.7,279,120.5
		c46.5,14.3,94.4,25.4,143.1,28.4c58,3.6,116.5,1.3,173.8-8.6c103.5-17.8,203.9-63.7,276.5-141c73.1-77.8,105.3-179.8,108.8-285.1
		C1873.3,1332.2,1847.1,1221.5,1823.7,1111.5z"/>
	<g>
		<g>
			<g>
				<g>
					<path class="st2" d="M854.6,370.8c-0.1,0-0.1-0.1-0.2-0.1c0.1,0,0.1-0.1,0.2-0.1c11.6-6.7,15.4-16.5,11-24.1
						c-4.4-7.7-14.8-9.2-26.4-2.5c-0.1,0-0.1,0.1-0.1,0.1c0-0.1,0-0.1,0-0.2c0-13.4-6.6-21.6-15.4-21.6c-8.8,0-15.4,8.2-15.4,21.6
						c0,0.1,0,0.1,0,0.2c0,0-0.1-0.1-0.1-0.1c-11.6-6.7-22-5.1-26.4,2.5c-4.4,7.7-0.6,17.4,11,24.1c0.1,0,0.1,0.1,0.2,0.1
						c-0.1,0-0.1,0.1-0.2,0.1c-11.6,6.7-15.4,16.5-11,24.1c4.4,7.7,14.8,9.2,26.4,2.5c0.1,0,0.1-0.1,0.1-0.1c0,0.1,0,0.1,0,0.2
						c0,13.4,6.6,21.6,15.4,21.6c8.8,0,15.4-8.2,15.4-21.6c0-0.1,0-0.1,0-0.2c0,0,0.1,0.1,0.1,0.1c11.6,6.7,22,5.1,26.4-2.5
						C870,387.3,866.1,377.5,854.6,370.8z"/>
					<g>
						<path class="st1" d="M823.7,351.9c-1.4,0-2.4,2.4-2.4,6.2s2.1,7.7,2.4,7.7s2.4-3.9,2.4-7.7S825,351.9,823.7,351.9z"/>
						<path class="st1" d="M807.4,361.3c-0.7,1.2,0.9,3.3,4.2,5.2s7.8,2,7.9,1.8s-2.2-4-5.5-5.9
							C810.7,360.4,808.1,360.1,807.4,361.3z"/>
						<path class="st1" d="M807.4,380c0.7,1.2,3.2,0.9,6.6-1c3.3-1.9,5.6-5.7,5.5-5.9s-4.6-0.1-7.9,1.8
							C808.2,376.8,806.7,378.8,807.4,380z"/>
						<path class="st1" d="M823.6,389.4c1.4,0,2.4-2.4,2.4-6.2s-2.1-7.7-2.4-7.7s-2.4,3.9-2.4,7.7S822.2,389.4,823.6,389.4z"/>
						<path class="st1" d="M839.8,380.1c0.7-1.2-0.9-3.3-4.2-5.2c-3.3-1.9-7.8-2-7.9-1.8s2.2,4,5.5,5.9
							C836.6,381,839.1,381.3,839.8,380.1z"/>
						<path class="st1" d="M839.9,361.4c-0.7-1.2-3.2-0.9-6.6,1c-3.3,1.9-5.6,5.7-5.5,5.9s4.6,0.1,7.9-1.8
							C839,364.6,840.6,362.6,839.9,361.4z"/>
					</g>
				</g>
				<g>
					<path class="st3" d="M1260.8,449.1c0,0-0.1,0-0.1-0.1c0,0,0.1,0,0.1-0.1c10.2-5.9,13.5-14.4,9.6-21.2c-3.9-6.7-13-8.1-23.1-2.2
						c0,0-0.1,0.1-0.1,0.1c0-0.1,0-0.1,0-0.2c0-11.7-5.7-18.9-13.5-18.9s-13.5,7.2-13.5,18.9c0,0.1,0,0.1,0,0.2c0,0-0.1-0.1-0.1-0.1
						c-10.2-5.9-19.3-4.5-23.1,2.2c-3.9,6.7-0.5,15.3,9.6,21.2c0,0,0.1,0,0.1,0.1c0,0-0.1,0-0.1,0.1c-10.2,5.9-13.5,14.4-9.6,21.2
						c3.9,6.7,13,8.1,23.1,2.2c0,0,0.1-0.1,0.1-0.1c0,0.1,0,0.1,0,0.2c0,11.7,5.7,18.9,13.5,18.9c7.8,0,13.5-7.2,13.5-18.9
						c0-0.1,0-0.1,0-0.2c0,0,0.1,0.1,0.1,0.1c10.2,5.9,19.3,4.5,23.1-2.2C1274.3,463.6,1271,455,1260.8,449.1z"/>
					<g>
						<path class="st1" d="M1233.7,432.6c-1.2,0-2.1,2.1-2.1,5.5c0,3.4,1.9,6.8,2.1,6.8c0.2,0,2.1-3.4,2.1-6.8
							C1235.8,434.7,1234.9,432.6,1233.7,432.6z"/>
						<path class="st1" d="M1219.5,440.8c-0.6,1,0.8,2.9,3.7,4.5c2.9,1.7,6.8,1.8,6.9,1.6c0.1-0.2-1.9-3.5-4.8-5.2
							C1222.3,440,1220.1,439.8,1219.5,440.8z"/>
						<path class="st1" d="M1219.4,457.2c0.6,1,2.8,0.8,5.8-0.9c2.9-1.7,4.9-5,4.8-5.2c-0.1-0.2-4-0.1-6.9,1.6
							C1220.2,454.4,1218.8,456.2,1219.4,457.2z"/>
						<path class="st1" d="M1233.6,465.5c1.2,0,2.1-2.1,2.1-5.5s-1.9-6.8-2.1-6.8c-0.2,0-2.1,3.4-2.1,6.8S1232.4,465.5,1233.6,465.5
							z"/>
						<path class="st1" d="M1247.9,457.3c0.6-1-0.8-2.9-3.7-4.5c-2.9-1.7-6.8-1.8-6.9-1.6c-0.1,0.2,1.9,3.5,4.8,5.2
							S1247.3,458.4,1247.9,457.3z"/>
						<path class="st1" d="M1248,440.9c-0.6-1-2.8-0.8-5.8,0.9c-2.9,1.7-4.9,5-4.8,5.2s4,0.1,6.9-1.6
							C1247.2,443.7,1248.6,441.9,1248,440.9z"/>
					</g>
				</g>
				<g>
					<radialGradient id="SVGID_1_" cx="1060.9368" cy="607.9021" r="53.8588" gradientUnits="userSpaceOnUse">
						<stop  offset="0" style="stop-color:#F2E1C7"/>
						<stop  offset="0.5737" style="stop-color:#F7E7CE"/>
						<stop  offset="1" style="stop-color:#FDEED7"/>
					</radialGradient>
					<path class="st4" d="M1097.1,608c-0.1,0-0.1-0.1-0.2-0.1c0.1,0,0.1-0.1,0.2-0.1c13.5-7.8,18-19.2,12.8-28.2
						c-5.2-8.9-17.3-10.8-30.8-3c-0.1,0-0.1,0.1-0.2,0.1c0-0.1,0-0.1,0-0.2c0-15.6-7.7-25.2-18-25.2s-18,9.6-18,25.2
						c0,0.1,0,0.1,0,0.2c-0.1,0-0.1-0.1-0.2-0.1c-13.5-7.8-25.7-6-30.8,3c-5.2,8.9-0.7,20.4,12.8,28.2c0.1,0,0.1,0.1,0.2,0.1
						c-0.1,0-0.1,0.1-0.2,0.1c-13.5,7.8-18,19.2-12.8,28.2c5.2,8.9,17.3,10.8,30.8,3c0.1,0,0.1-0.1,0.2-0.1c0,0.1,0,0.1,0,0.2
						c0,15.6,7.7,25.2,18,25.2c10.3,0,18-9.6,18-25.2c0-0.1,0-0.1,0-0.2c0.1,0,0.1,0.1,0.2,0.1c13.5,7.8,25.7,6,30.8-3
						C1115.1,627.2,1110.6,615.8,1097.1,608z"/>
					<g>
						<path class="st1" d="M1061,586c-1.6,0-2.8,2.8-2.8,7.3c0,4.5,2.5,9,2.8,9c0.3,0,2.8-4.5,2.8-9
							C1063.8,588.8,1062.6,586,1061,586z"/>
						<path class="st1" d="M1042,596.9c-0.8,1.4,1,3.8,4.9,6c3.9,2.3,9.1,2.4,9.2,2.1c0.1-0.3-2.5-4.7-6.4-6.9
							C1045.8,595.9,1042.8,595.5,1042,596.9z"/>
						<path class="st1" d="M1042,618.8c0.8,1.4,3.8,1,7.7-1.2c3.9-2.3,6.6-6.7,6.4-6.9c-0.1-0.3-5.3-0.1-9.2,2.1
							C1043,615,1041.2,617.4,1042,618.8z"/>
						<path class="st1" d="M1060.9,629.8c1.6,0,2.8-2.8,2.8-7.3c0-4.5-2.5-9-2.8-9c-0.3,0-2.8,4.5-2.8,9
							C1058.1,627,1059.3,629.8,1060.9,629.8z"/>
						<path class="st1" d="M1079.9,618.9c0.8-1.4-1-3.8-4.9-6c-3.9-2.3-9.1-2.4-9.2-2.1c-0.1,0.3,2.5,4.7,6.4,6.9
							C1076.1,619.9,1079.1,620.3,1079.9,618.9z"/>
						<path class="st1" d="M1079.9,597c-0.8-1.4-3.8-1-7.7,1.2c-3.9,2.3-6.6,6.7-6.4,6.9c0.1,0.3,5.3,0.1,9.2-2.1
							C1078.9,600.8,1080.7,598.4,1079.9,597z"/>
					</g>
				</g>
				<g>
					
						<linearGradient id="SVGID_2_" gradientUnits="userSpaceOnUse" x1="-4576.0693" y1="-27.3276" x2="-4576.0693" y2="155.1169" gradientTransform="matrix(-0.9878 -0.1558 -0.1558 0.9878 -3207.1968 -275.9188)">
						<stop  offset="0" style="stop-color:#A2AEA0"/>
						<stop  offset="0.9936" style="stop-color:#818E7E"/>
						<stop  offset="1" style="stop-color:#818E7E"/>
					</linearGradient>
					<path class="st5" d="M1187.9,567.9c-5.3,7.3-9.9,15-12.8,23.5c-2.8,8.3-4.5,17.1-5.3,25.8c-1.7,17.8,0.7,35.3,10.9,50.3
						c11.3,16.5,27,29.1,41.2,42.9c0.2,0.2,0.3,0.4,0.5,0.5c0.2,0.2,0.5,0.4,0.8,0.6c6.8,5.1,14.2,9.1,22.2,11.9
						c16.8,5.9,35.8,6.2,52.7,0.6c17.2-5.7,31.9-17.6,41.8-32.7c5-7.6,8.8-16.2,11-25c2.3-9.2,2.5-18.6,2.2-27.9
						c-0.4-9.6-1.3-19.3-0.2-28.9c1.3-10.4,5.5-19.6,12.1-27.7c12.5-15.2,29.9-25.7,41-42.3c8.5-12.7,13.7-29.3,6.6-43.8
						c-4.3-8.8-12.6-14.3-18.8-21.6c-5.4-6.4-7.9-14.3-8-22.6c-0.2-17.9,8.2-35,14.9-51.1c4.5-10.9,9.1-21.8,13.6-32.7
						c4-9.5,8.3-18.9,11.6-28.6c4.7-13.8,7.4-32.4-6.2-42.3c-7.4-5.4-17.4-6.2-26-3.3c-9.1,3-16.6,9.6-22.6,17
						c-14,17.3-20.5,38.9-30.9,58.3c-8.7,16.3-20.9,32-39.3,37.5c-15.1,4.5-32.7,3.4-46,12.8c-17.9,12.6-16.1,35.6-14.8,54.8
						c0.7,10,0.7,20-2.7,29.6c-2.9,8.5-7.9,16.2-13.4,23.2C1212.8,540.8,1198.8,553,1187.9,567.9z"/>
					<path class="st6" d="M1237.9,601.5c0.5,13.3,4.3,26.1,11.1,37.4c12.7-34.6,27.3-68.4,44-101.2c-8.1-20.6-7.7-43.4-4.7-65
						c0.6-4.2,7.1-3.2,6.5,1c-2.6,18.5-3.2,37.8,2.3,55.8c14.1-27.1,29.6-53.5,46.3-79.2c2.3-3.6,7.4,0.7,5.1,4.2
						c-15.3,23.5-29.6,47.7-42.7,72.5c18.4-8.6,37.7-15.2,57.6-19.8c4.2-1,4.9,5.6,0.7,6.6c-22,5-43.2,12.8-63.3,23c0,0-0.1,0-0.1,0
						c-10.5,20.4-20.2,41.2-29.1,62.4c-5.9,14-11.5,28.2-16.7,42.5c15.8-0.1,31.6-1.5,47.1-4.4c4.2-0.8,4.9,5.8,0.7,6.6
						c-16.3,3-32.8,4.5-49.4,4.4c-0.3,0.6-0.8,1.1-1.4,1.4c-12.3,34.5-22.5,69.7-30.6,105.4c-6.8,30.2-12.1,60.6-15.8,91.3
						c-0.5,4.2-7.1,3.2-6.5-1c6.7-54.6,18.3-108.6,34.5-161.2c3.9-12.6,8.1-25.2,12.5-37.6c-9.1-13.1-14.3-28.5-14.9-44.5
						C1231.1,598,1237.7,597.2,1237.9,601.5z"/>
				</g>
				<linearGradient id="SVGID_3_" gradientUnits="userSpaceOnUse" x1="870.898" y1="691.1243" x2="870.898" y2="777.0171">
					<stop  offset="0" style="stop-color:#5C6B66"/>
					<stop  offset="0.4241" style="stop-color:#57645F"/>
					<stop  offset="1" style="stop-color:#49524F"/>
				</linearGradient>
				<path class="st7" d="M1035,773.6c-12.2-10.1-7.3-25.2-9.8-39c-2.3-12.8-12.4-19.7-24.4-22.4c-12.5-2.9-26.7-1.5-37.9-8.8
					c-6.8-4.5-8-10.9-9.1-18.5c-0.8-5.7-2.6-11.4-7.8-14.6c-13.1-8-27.4,4-40.9,3.2c-17.1-1-30.8-13.4-45.9-20.1
					c-12.9-5.8-27.1-7.9-39.6,0c-11.4,7.2-18.9,19.4-31.6,24.7c-11.2,4.6-24.6,5-33.9,13.5c-10.1,9.1-7.8,23.1-14,34.1
					c-4,7.1-11.7,8.9-18.5,12.2c-5.5,2.7-9.8,6.6-12.2,12.2c-5.2,12.2-1,25.9-5.1,38.3c-2,6.2-5.7,11.5-12.4,12.7
					c-3.2,0.5-1.8,5.4,1.3,4.8c3.1-0.5,5.6-1.8,7.8-3.5c67.3,19.7,138,20.1,207.5,17.4c36.4-1.4,72.7-3.3,109.1-5
					c12.3-0.6,28.8-1.8,33.2-16C1054.7,786.6,1042.9,780.1,1035,773.6z"/>
				
					<linearGradient id="SVGID_4_" gradientUnits="userSpaceOnUse" x1="-4456.3223" y1="736.3234" x2="-4456.3223" y2="813.0341" gradientTransform="matrix(-1 0 0 1 -3304 0)">
					<stop  offset="0" style="stop-color:#5C6B66"/>
					<stop  offset="0.4241" style="stop-color:#57645F"/>
					<stop  offset="1" style="stop-color:#49524F"/>
				</linearGradient>
				<path class="st8" d="M972.3,823.1c4.3,14.1,20.9,15.4,33.2,16c36.4,1.7,72.7,3.6,109.1,5c69.5,2.7,140.2,2.2,207.5-17.4
					c2.2,1.7,4.8,3,7.8,3.5c3.2,0.5,4.5-4.3,1.3-4.8c-6.7-1.1-10.4-6.5-12.4-12.7c-4.1-12.4,0.1-26.1-5.1-38.3
					c-2.4-5.6-6.7-9.6-12.2-12.2c-6.8-3.3-14.5-5.1-18.5-12.2c-6.2-11-3.9-25-14-34.1c-9.3-8.4-22.8-8.9-33.9-13.5
					c-12.7-5.2-20.3-17.4-31.6-24.7c-12.4-7.9-26.7-5.8-39.6,0c-15,6.7-28.8,19.1-45.9,20.1c-13.5,0.8-27.9-11.2-40.9-3.2
					c-5.2,3.2-7,8.8-7.8,14.6c-1.1,7.5-2.3,14-9.1,18.5c-11.2,7.3-25.3,6-37.9,8.8c-12,2.7-22.1,9.6-24.4,22.4
					c-2.4,13.8,2.5,28.8-9.8,39C980.4,804.3,968.5,810.8,972.3,823.1z"/>
				<g>
					
						<linearGradient id="SVGID_5_" gradientUnits="userSpaceOnUse" x1="705.6574" y1="1241.7582" x2="705.6574" y2="1448.0007" gradientTransform="matrix(0.9453 -0.3263 0.3263 0.9453 -390.1736 -583.7626)">
						<stop  offset="0" style="stop-color:#A2AEA0"/>
						<stop  offset="0.9936" style="stop-color:#818E7E"/>
						<stop  offset="1" style="stop-color:#818E7E"/>
					</linearGradient>
					<path class="st9" d="M821.4,502.4c-4.9-8.6-9-18-10.8-27.8c-2-11.2-0.3-22.1,2.2-33c4.8-20.9,10.8-45.9-6.7-62.8
						c-13.1-12.6-32.6-14.5-48.4-22c-19.3-9.2-29.9-28.6-36.7-48c-8-23.2-11.4-48-23.8-69.5c-5.3-9.1-12.4-17.7-21.9-22.6
						c-8.9-4.6-20.1-5.5-29.1-0.8c-16.6,8.5-16.9,29.4-14.1,45.4c2,11.3,5.1,22.4,7.8,33.5c3.1,12.8,6.2,25.6,9.3,38.3
						c4.6,18.9,10.9,39.2,7.5,58.8c-1.6,9.1-5.7,17.4-12.7,23.5c-8.1,7-18.2,11.6-24.5,20.5c-10.4,14.7-7.5,33.9-0.4,49.3
						c9.3,20.1,26.6,34.7,37.8,53.6c5.9,10,8.9,20.9,8.5,32.6c-0.4,10.7-3.1,21.3-5.2,31.8c-2,10.3-3.4,20.6-2.4,31.1
						c0.9,10.1,3.5,20.1,7.7,29.4c8.3,18.3,22.3,33.9,40.3,43.2c17.6,9.1,38.5,12,58,8.5c9.3-1.7,18.2-4.8,26.5-9.2
						c0.3-0.1,0.6-0.3,0.9-0.5c0.3-0.1,0.5-0.3,0.7-0.5c18-12.7,37.5-23.9,52.8-40c13.9-14.7,19.5-33.6,20.7-53.4
						c0.6-9.7,0.3-19.7-1.4-29.3c-1.7-9.9-5.4-19.2-10-28.1C844.7,536.2,831.5,520.3,821.4,502.4z"/>
					<path class="st6" d="M793.4,582.7c-2.8,14.6-9.2,28-18.7,39.2c-7.9-40.2-18.2-79.9-30.8-118.9c12.4-21.3,16-46.4,16.4-70.7
						c0.1-4.8-7.3-4.8-7.4,0c-0.4,20.8-3,42.2-12.2,61c-10.8-32.3-23.3-64-37.2-95.1c-1.9-4.3-8.3-0.6-6.4,3.7
						c12.8,28.5,24.2,57.6,34.3,87.1c-18.8-12.7-38.8-23.3-59.9-31.7c-4.4-1.8-6.3,5.4-2,7.1c23.3,9.4,45.3,21.6,65.6,36.3
						c0,0,0.1,0,0.1,0.1c8,24.3,15.1,48.8,21.2,73.6c4.1,16.5,7.8,33,11,49.7c-17.4-2.8-34.4-7.2-51.1-13c-4.5-1.6-6.4,5.5-2,7.1
						c17.4,6.1,35.3,10.6,53.5,13.4c0.2,0.7,0.7,1.3,1.3,1.8c7.5,40.1,12.6,80.5,15.3,121.2c2.3,34.3,2.8,68.8,1.6,103.2
						c-0.2,4.8,7.2,4.7,7.4,0c2.1-61.2-1.3-122.6-10-183.2c-2.1-14.6-4.5-29.1-7.2-43.5c12.3-12.8,20.7-28.9,24.1-46.3
						C801.4,580,794.3,578,793.4,582.7z"/>
				</g>
				<g>
					
						<linearGradient id="SVGID_6_" gradientUnits="userSpaceOnUse" x1="880.548" y1="186.5787" x2="839.0254" y2="378.0976" gradientTransform="matrix(0.9936 0.1133 -0.1133 0.9936 81.1632 216.0977)">
						<stop  offset="0" style="stop-color:#A2AEA0"/>
						<stop  offset="0.9936" style="stop-color:#818E7E"/>
						<stop  offset="1" style="stop-color:#818E7E"/>
					</linearGradient>
					<path class="st10" d="M969.8,594.4c0.5-7.3,1.6-14.7,4.5-21.5c3.2-7.7,8.6-13.8,14.5-19.5c11.3-11,25-24.1,21-41.5
						c-3-13-14.4-22-21.1-33c-8.2-13.4-7.1-29.6-3.5-44.4c4.3-17.5,12.1-34.2,13-52.5c0.4-7.8-0.6-15.9-4.5-22.7
						c-3.7-6.4-10.2-11.4-17.7-12.2c-13.7-1.4-22.2,11.4-26.9,22.4c-3.3,7.8-5.8,15.9-8.5,23.8c-3.2,9.1-6.4,18.3-9.6,27.4
						c-4.7,13.5-8.9,28.6-18.8,39.4c-4.6,5-10.5,8.5-17.3,9.5c-7.8,1.1-15.9-0.1-23.3,2.9c-12.3,4.9-18.2,17.9-20,30.3
						c-2.3,16.2,2.6,32.1,1.9,48.2c-0.4,8.6-2.8,16.5-7.8,23.6c-4.5,6.5-10.5,11.9-15.9,17.6c-5.4,5.5-10.3,11.4-14,18.3
						c-3.5,6.6-5.9,13.9-7,21.3c-2.2,14.7,0.2,29.9,7.6,42.8c7.3,12.7,19,22.9,32.5,28.5c6.4,2.7,13.1,4.3,20.1,4.9
						c0.2,0.1,0.5,0.1,0.8,0.1c0.2,0,0.4,0,0.6,0c16.2-0.6,32.7,0.3,48.6-3.6c14.5-3.5,25.5-12.9,34.2-24.7
						c4.2-5.8,8.1-12,10.9-18.6c2.9-6.8,4.4-14,5.1-21.4C970.7,624.6,968.9,609.5,969.8,594.4z"/>
					<path class="st6" d="M942.6,544.2c-8.9,3.5-17.8,7-26.7,10.5c8.5-21.9,17-43.7,25.5-65.6c1.9-4.8-5.9-6.9-7.7-2.1
						c-8.1,20.7-16.4,41.3-24.5,62.1c-2.8-9.3-6.2-18.4-10.4-27.2c-2.2-4.7-9.1-0.6-6.9,4c5,10.7,8.9,21.7,11.8,33.2
						c0.2,0.8,0.5,1.3,1,1.8c-7.1,18.5-13.9,37.1-20,56c-3.6,11.2-6.8,22.4-9.6,33.8c-5.9-13.6-12.2-27-19-40.2
						c-2.3-4.6-9.3-0.5-6.9,4c8.3,16.1,15.9,32.5,22.9,49.3c-6.2,28.6-9.9,57.6-11.8,86.9c-1.7,26.1-2.4,52.2-3,78.3
						c-0.1,5.1,7.9,5.1,8,0c1.1-45.9,2.1-92.1,9.4-137.6c1.4-8.5,3-16.9,4.9-25.2c0.1,0,0.1-0.1,0.2-0.1
						c13.2-10.1,27.9-17.9,43.6-23.3c4.8-1.6,2.8-9.4-2.1-7.7c-13.8,4.7-26.8,11.1-38.8,19.3c7.7-30.5,18.2-60.1,29.6-89.5
						c10.9-4.3,21.8-8.6,32.8-12.8C949.4,550.1,947.4,542.3,942.6,544.2z"/>
				</g>
				<g>
					
						<linearGradient id="SVGID_7_" gradientUnits="userSpaceOnUse" x1="-4146.4507" y1="-451.6935" x2="-4181.4946" y2="-290.0565" gradientTransform="matrix(-0.9363 -0.3511 -0.3511 0.9363 -2901.6265 -519.0187)">
						<stop  offset="0" style="stop-color:#A2AEA0"/>
						<stop  offset="0.9936" style="stop-color:#818E7E"/>
						<stop  offset="1" style="stop-color:#818E7E"/>
					</linearGradient>
					<path class="st11" d="M1063.3,613.5c-1.6,6.1-2.6,12.2-2.4,18.5c0.3,6.1,1.4,12.2,3.1,18.1c3.4,12,9.4,22.8,19.8,29.9
						c11.5,7.8,24.9,12,37.6,17.4c0.1,0.1,0.3,0.1,0.5,0.2c0.2,0.1,0.4,0.1,0.6,0.2c5.7,1.6,11.5,2.3,17.4,2.1
						c12.4-0.4,24.8-5,34.3-12.9c9.7-8.1,16.2-19.5,18.8-31.8c1.3-6.2,1.6-12.7,0.8-19c-0.8-6.5-3-12.7-5.7-18.7
						c-2.7-6.1-5.8-12.2-7.4-18.7c-1.8-7.1-1.4-14.1,0.9-21.1c4.3-13.1,12.9-24.3,15.9-37.8c2.3-10.4,1.5-22.5-6.8-30.1
						c-5-4.6-11.8-6.1-17.7-9.3c-5.1-2.8-8.7-7.3-10.9-12.7c-4.7-11.5-3.5-24.8-3.3-36.9c0.2-8.2,0.4-16.4,0.6-24.7
						c0.2-7.2,0.6-14.4,0.3-21.5c-0.4-10.2-3.4-22.9-14.7-25.9c-6.2-1.6-12.9,0.4-17.7,4.4c-5.1,4.3-8.4,10.4-10.4,16.7
						c-4.7,14.8-3.5,30.4-5.3,45.7c-1.5,12.8-5.4,26-16,34.3c-8.7,6.8-20.3,10.5-26.6,19.9c-8.4,12.7-1.4,27.2,4.3,39.3
						c3,6.3,5.5,12.8,5.7,19.9c0.2,6.2-1,12.5-2.9,18.4C1072.7,589.5,1066.7,601,1063.3,613.5z"/>
					<path class="st6" d="M1113.1,545.5c6,5.4,12.1,10.9,18.1,16.3c-0.2-19.9-0.5-39.8-0.7-59.8c-0.1-4.4,6.7-3.7,6.8,0.6
						c0.2,18.9,0.7,37.8,1,56.7c5-6.6,10.4-12.8,16.4-18.5c3.1-3.1,7.4,2.2,4.3,5.3c-7.2,7-13.6,14.6-19.2,22.9
						c-0.4,0.5-0.8,0.9-1.3,1.1c0.1,16.9,0,33.7-0.8,50.5c-0.4,10-1.3,19.9-2.5,29.7c8.8-9,17.8-17.8,27.1-26.3
						c3.2-2.9,7.5,2.3,4.3,5.3c-11.4,10.4-22.4,21.1-32.9,32.4c-3.6,24.6-9.3,48.7-16.5,72.7c-6.4,21.2-13.7,42.2-21,63.1
						c-1.4,4.1-7.8,1.7-6.4-2.4c12.8-36.9,25.8-73.9,33.6-112.3c1.4-7.2,2.6-14.3,3.6-21.5c0-0.1-0.1-0.1-0.1-0.1
						c-7.5-12-16.8-22.6-27.8-31.5c-3.4-2.8,0.6-8.3,4-5.5c9.6,7.8,18,16.8,25.1,26.9c3-26.5,3.4-53.3,3.2-80.1
						c-7.4-6.7-14.8-13.3-22.2-20C1105.8,548.1,1109.8,542.5,1113.1,545.5z"/>
				</g>
				<g>
					
						<linearGradient id="SVGID_8_" gradientUnits="userSpaceOnUse" x1="990.343" y1="-535.6891" x2="1013.4955" y2="-535.6891" gradientTransform="matrix(0.9196 0.3928 -0.3928 0.9196 262.7992 628.9035)">
						<stop  offset="0" style="stop-color:#F2E1C7"/>
						<stop  offset="0.5737" style="stop-color:#F7E7CE"/>
						<stop  offset="1" style="stop-color:#FDEED7"/>
					</linearGradient>
					<path class="st12" d="M1399.8,510c-6.3-1.5-12.6,4.2-15.2,15.3c-2.6,11.1,4.6,24.6,5.8,24.9c1.2,0.3,13.6-8.6,16.3-19.7
						C1409.2,519.4,1406.1,511.4,1399.8,510z"/>
					
						<linearGradient id="SVGID_9_" gradientUnits="userSpaceOnUse" x1="-823.6848" y1="-1609.5397" x2="-800.5323" y2="-1609.5397" gradientTransform="matrix(0.7063 0.708 -0.708 0.7063 894.9689 2275.5747)">
						<stop  offset="0" style="stop-color:#F2E1C7"/>
						<stop  offset="0.5737" style="stop-color:#F7E7CE"/>
						<stop  offset="1" style="stop-color:#FDEED7"/>
					</linearGradient>
					<path class="st13" d="M1473.1,547.4c-5.3-3.7-13.3-0.8-19.9,8.5c-6.6,9.3-4.9,24.5-3.9,25.2c1,0.7,15.9-2.9,22.4-12.2
						S1478.4,551.1,1473.1,547.4z"/>
					
						<linearGradient id="SVGID_10_" gradientUnits="userSpaceOnUse" x1="1618.7805" y1="218.0274" x2="1641.933" y2="218.0274" gradientTransform="matrix(0.9632 0.2687 -0.2687 0.9632 -214.1602 34.3916)">
						<stop  offset="0" style="stop-color:#F2E1C7"/>
						<stop  offset="0.5737" style="stop-color:#F7E7CE"/>
						<stop  offset="1" style="stop-color:#FDEED7"/>
					</linearGradient>
					<path class="st14" d="M1300.2,662.1c-6.5-0.6-12,5.9-13.1,17.2c-1.1,11.4,7.8,23.8,9,23.9s12.4-10.3,13.5-21.7
						C1310.7,670.2,1306.6,662.8,1300.2,662.1z"/>
					
						<linearGradient id="SVGID_11_" gradientUnits="userSpaceOnUse" x1="-4046.9917" y1="-1601.2963" x2="-4023.8391" y2="-1601.2963" gradientTransform="matrix(0.1995 0.9799 -0.9799 0.1995 687.6423 4954.4048)">
						<stop  offset="0" style="stop-color:#F2E1C7"/>
						<stop  offset="0.5737" style="stop-color:#F7E7CE"/>
						<stop  offset="1" style="stop-color:#FDEED7"/>
					</linearGradient>
					<path class="st15" d="M1471.2,673.6c-2.4-6.1-10.7-8-21.3-3.8c-10.6,4.2-17.6,17.8-17.2,18.9s14.8,6.3,25.5,2.2
						S1473.5,679.7,1471.2,673.6z"/>
					
						<linearGradient id="SVGID_12_" gradientUnits="userSpaceOnUse" x1="2935.8989" y1="4697.7026" x2="2952.6052" y2="4697.7026" gradientTransform="matrix(0.8337 -0.5522 0.5522 0.8337 -3704.7917 -1713.9956)">
						<stop  offset="0" style="stop-color:#F2E1C7"/>
						<stop  offset="0.5737" style="stop-color:#F7E7CE"/>
						<stop  offset="1" style="stop-color:#FDEED7"/>
					</linearGradient>
					<path class="st16" d="M1333.9,566c-3.4,3.2-2.5,9.3,3.2,15.3c5.7,6,16.7,7,17.3,6.4c0.6-0.6,0.2-11.6-5.4-17.6
						C1343.3,564,1337.3,562.8,1333.9,566z"/>
					
						<linearGradient id="SVGID_13_" gradientUnits="userSpaceOnUse" x1="503.4293" y1="-626.8903" x2="520.1354" y2="-626.8903" gradientTransform="matrix(0.8773 0.4799 -0.4799 0.8773 659.7664 972.7756)">
						<stop  offset="0" style="stop-color:#F2E1C7"/>
						<stop  offset="0.5737" style="stop-color:#F7E7CE"/>
						<stop  offset="1" style="stop-color:#FDEED7"/>
					</linearGradient>
					<path class="st17" d="M1414.7,654.5c-4.4-1.5-9.4,2.2-12,10c-2.7,7.8,1.6,18,2.4,18.3c0.8,0.3,10.4-5.2,13.1-13
						C1420.8,661.9,1419.2,656,1414.7,654.5z"/>
					
						<linearGradient id="SVGID_14_" gradientUnits="userSpaceOnUse" x1="-7552.0815" y1="1032.421" x2="-7535.3755" y2="1032.421" gradientTransform="matrix(-0.4981 0.8671 -0.8671 -0.4981 -1451.2902 7794.8911)">
						<stop  offset="0" style="stop-color:#F2E1C7"/>
						<stop  offset="0.5737" style="stop-color:#F7E7CE"/>
						<stop  offset="1" style="stop-color:#FDEED7"/>
					</linearGradient>
					<path class="st18" d="M1424.7,744.7c1.6-4.4-2-9.4-9.7-12.2c-7.7-2.8-18,1.2-18.3,2c-0.3,0.8,5,10.5,12.7,13.3
						C1417.2,750.6,1423.1,749.1,1424.7,744.7z"/>
					<path class="st6" d="M1409.5,731.5c-3.8-0.1-7.5,0.7-10,1.6c-8.7-4.5-16.4-10.5-22.9-17.9c20-7.5,39.6-15.8,58.9-24.9
						c3.4,1.2,9.5,2.6,15.6,2.2c-0.4-2.9-1.2-5.8-2.4-8.9c-1.5-3.7-3.3-7-5.4-9.7c-6,5-9.9,12.1-10.6,14.3
						c-11.5,5.4-23.1,10.5-34.8,15.3c3.4-7.4,6.8-14.7,10.1-22.1c2.3-1.4,5.3-3.9,7.6-7c-1.8-1.1-3.8-2-6-2.8
						c-2.7-0.9-5.4-1.4-7.9-1.5c0,5,1.6,9.9,2.6,11.9c-3.5,7.6-7,15.2-10.5,22.8c-0.1,0.1-0.1,0.3-0.1,0.4
						c-25.8,10.4-52.2,19.4-78.9,27c18.1-20.2,36.2-40.3,54.3-60.5c0.9,0.3,2-0.3,2.1-1.2c0.1-0.5,0.2-0.9,0.2-1.4
						c13.5-15,26.9-30,40.4-45c12.8-14.2,25.5-28.4,38.3-42.6c2.7-0.2,10.4-2.5,16.5-7.1c-1.9-2.2-4.2-4.2-6.9-6.1
						c-3.3-2.3-6.6-4-9.9-5.1c-1.8,5.9-1.8,12.1-1.4,15.6c-25.3,28.3-50.7,56.5-76,84.7c6.4-37.9,12.8-75.8,19.2-113.7
						c2.7-1.6,8.4-6.3,12-12.4c-2.6-1.3-5.5-2.3-8.7-3.1c-3.9-0.9-7.6-1.3-11.1-1.1c0.6,6.4,3.1,12.4,4.8,15.4
						c-3.3,19.4-6.6,38.8-9.9,58.2c-6.4-8.9-14.8-16-24.4-21.1c-0.1-2.6-0.8-7.2-2.7-11.2c-1.8,1.1-3.6,2.4-5.3,4
						c-2.1,2-3.8,4.1-5,6.2c3.8,2.1,8.1,3,10.7,3.2c10.1,5.1,18.7,12.5,25.1,21.8c0.3,0.4,0.7,0.6,1.1,0.6c-3.2,19-6.4,38-9.6,57
						c-0.8,0.1-1.5,1-1.4,1.9c-19.4,21.6-38.7,43.2-58.1,64.7c-0.3,0.1-0.5,0.1-0.8,0.2c-0.9,0.2-1.1,1-0.9,1.7
						c-2.4,2.7-4.8,5.3-7.1,8c-1.5,1.7-3.1,3.4-4.6,5.1c0.7-15.6,1.4-31.1,2.1-46.7c2.6-2.3,7.1-7.4,9.7-13.5
						c-2.7-0.9-5.8-1.6-9-1.9c-4-0.4-7.7-0.3-11.1,0.4c1.5,6.8,5.3,12.9,7.3,15.2c-0.7,16.4-1.5,32.9-2.2,49.3c0,0.2,0,0.4,0.1,0.6
						c-11.7,13.1-23.5,26.2-35.2,39.3c-1.3,1.5,1.1,3.4,2.4,1.9c17-19,34.1-38,51.1-56.9c21.1-5.8,42-12.6,62.5-20.2
						c6.5,7.7,14.4,14.1,23.2,18.9c0.7,1.8,3.7,6.8,8.1,10.1c1.1-1.7,2.1-3.7,2.9-6C1408.8,736.6,1409.4,734,1409.5,731.5z"/>
				</g>
				<g>
					
						<linearGradient id="SVGID_15_" gradientUnits="userSpaceOnUse" x1="-4150.2104" y1="1403.1818" x2="-4127.0581" y2="1403.1818" gradientTransform="matrix(-0.9509 0.3094 0.3094 0.9509 -3747.5618 480.7671)">
						<stop  offset="0" style="stop-color:#F2E1C7"/>
						<stop  offset="0.5737" style="stop-color:#F7E7CE"/>
						<stop  offset="1" style="stop-color:#FDEED7"/>
					</linearGradient>
					<path class="st19" d="M618.8,514.4c6.4-0.9,12.2,5.3,13.8,16.6c1.6,11.3-6.8,24.1-8,24.3s-12.8-9.8-14.4-21.1
						C608.5,523,612.3,515.4,618.8,514.4z"/>
					
						<linearGradient id="SVGID_16_" gradientUnits="userSpaceOnUse" x1="-4867.4663" y1="2109.6458" x2="-4844.314" y2="2109.6458" gradientTransform="matrix(-0.7665 0.6423 0.6423 0.7665 -4523.7915 2064.6333)">
						<stop  offset="0" style="stop-color:#F2E1C7"/>
						<stop  offset="0.5737" style="stop-color:#F7E7CE"/>
						<stop  offset="1" style="stop-color:#FDEED7"/>
					</linearGradient>
					<path class="st20" d="M542.4,545.2c5.6-3.3,13.3,0.4,19,10.3s2.7,24.9,1.7,25.5c-1.1,0.6-15.6-4.3-21.3-14.2
						C536.1,557,536.8,548.5,542.4,545.2z"/>
					
						<linearGradient id="SVGID_17_" gradientUnits="userSpaceOnUse" x1="-3731.7612" y1="1465.5095" x2="-3708.6089" y2="1465.5095" gradientTransform="matrix(-0.9833 0.1819 0.1819 0.9833 -3219.5784 -68.9311)">
						<stop  offset="0" style="stop-color:#F2E1C7"/>
						<stop  offset="0.5737" style="stop-color:#F7E7CE"/>
						<stop  offset="1" style="stop-color:#FDEED7"/>
					</linearGradient>
					<path class="st21" d="M704.4,674.9c6.5-0.1,11.4,6.9,11.5,18.3c0.1,11.4-9.9,23-11.1,23c-1.2,0-11.4-11.4-11.6-22.8
						C693.2,682,697.9,674.9,704.4,674.9z"/>
					
						<linearGradient id="SVGID_18_" gradientUnits="userSpaceOnUse" x1="-5373.1934" y1="3730.2793" x2="-5350.0405" y2="3730.2793" gradientTransform="matrix(-0.2859 0.9583 0.9583 0.2859 -4555.7295 4751.2842)">
						<stop  offset="0" style="stop-color:#F2E1C7"/>
						<stop  offset="0.5737" style="stop-color:#F7E7CE"/>
						<stop  offset="1" style="stop-color:#FDEED7"/>
					</linearGradient>
					<path class="st22" d="M533.1,671.1c2.9-5.8,11.3-7,21.5-1.9c10.2,5.1,16,19.3,15.4,20.4c-0.5,1.1-15.3,5-25.5-0.1
						C534.3,684.4,530.2,677,533.1,671.1z"/>
					
						<linearGradient id="SVGID_19_" gradientUnits="userSpaceOnUse" x1="-1510.0789" y1="1470.0424" x2="-1493.3727" y2="1470.0424" gradientTransform="matrix(-0.7813 -0.6242 -0.6242 0.7813 412.8212 -1499.6792)">
						<stop  offset="0" style="stop-color:#F2E1C7"/>
						<stop  offset="0.5737" style="stop-color:#F7E7CE"/>
						<stop  offset="1" style="stop-color:#FDEED7"/>
					</linearGradient>
					<path class="st23" d="M679.4,576.1c3.1,3.5,1.6,9.5-4.6,14.9s-17.2,5.5-17.8,4.8c-0.6-0.7,0.8-11.6,7-17.1
						C670.2,573.3,676.3,572.6,679.4,576.1z"/>
					
						<linearGradient id="SVGID_20_" gradientUnits="userSpaceOnUse" x1="-4425.4409" y1="1800.1959" x2="-4408.7349" y2="1800.1959" gradientTransform="matrix(-0.9165 0.3999 0.3999 0.9165 -4173.561 787.9405)">
						<stop  offset="0" style="stop-color:#F2E1C7"/>
						<stop  offset="0.5737" style="stop-color:#F7E7CE"/>
						<stop  offset="1" style="stop-color:#FDEED7"/>
					</linearGradient>
					<path class="st24" d="M591,657.1c4.6-1.1,9.1,3,11.1,11c1.9,8-3.2,17.8-4,18s-9.9-6.1-11.8-14.1
						C584.3,663.9,586.5,658.2,591,657.1z"/>
					
						<linearGradient id="SVGID_21_" gradientUnits="userSpaceOnUse" x1="-5022.8672" y1="5909.6729" x2="-5006.1611" y2="5909.6729" gradientTransform="matrix(0.4189 0.908 0.908 -0.4189 -2678.1169 7770.8818)">
						<stop  offset="0" style="stop-color:#F2E1C7"/>
						<stop  offset="0.5737" style="stop-color:#F7E7CE"/>
						<stop  offset="1" style="stop-color:#FDEED7"/>
					</linearGradient>
					<path class="st25" d="M573,746c-1.2-4.5,2.8-9.2,10.8-11.3c8-2.1,17.8,2.8,18.1,3.7c0.2,0.8-5.9,10-13.9,12.1
						S574.2,750.5,573,746z"/>
					<path class="st6" d="M589.3,734.2c3.8,0.2,7.4,1.4,9.8,2.5c9.1-3.7,17.3-9,24.4-15.8c-19.2-9.2-38-19.3-56.4-30.1
						c-3.5,0.9-9.7,1.8-15.7,0.8c0.7-2.8,1.7-5.7,3.2-8.6c1.8-3.6,3.9-6.7,6.2-9.2c5.5,5.5,8.8,12.9,9.2,15.2
						c10.9,6.4,22,12.5,33.3,18.3c-2.7-7.6-5.4-15.3-8.1-22.9c-2.1-1.6-5-4.4-7-7.7c1.9-0.9,4-1.7,6.2-2.3c2.8-0.7,5.5-1,8-0.8
						c-0.4,5-2.5,9.8-3.7,11.6c2.8,7.9,5.6,15.8,8.4,23.7c0.1,0.1,0,0.3,0.1,0.4c24.8,12.7,50.2,24,76.2,33.9
						c-16.2-21.7-32.5-43.4-48.7-65.1c-0.9,0.3-1.9-0.4-2-1.4c0-0.5-0.1-0.9-0.1-1.4c-12.1-16.2-24.2-32.3-36.2-48.5
						c-11.4-15.3-22.9-30.6-34.3-45.9c-2.7-0.5-10.1-3.4-15.8-8.6c2.1-2,4.6-3.8,7.4-5.4c3.5-2,6.9-3.4,10.3-4.2
						c1.3,6,0.7,12.2,0,15.6c22.7,30.4,45.5,60.8,68.2,91.2c-3-38.3-6-76.6-9-114.9c-2.6-1.9-7.8-7.1-10.8-13.5
						c2.7-1,5.7-1.8,8.9-2.3c4-0.6,7.7-0.6,11.1-0.1c-1.1,6.3-4.2,12.1-6.1,14.9c1.5,19.6,3.1,39.3,4.6,58.9
						c7.2-8.2,16.1-14.7,26.2-18.9c0.3-2.6,1.4-7.1,3.7-10.9c1.7,1.2,3.4,2.7,4.9,4.5c1.9,2.2,3.4,4.4,4.5,6.7
						c-4,1.7-8.4,2.2-10.9,2.2c-10.5,4.2-19.7,10.8-27,19.5c-0.3,0.4-0.7,0.6-1.1,0.5c1.5,19.2,3,38.4,4.5,57.6
						c0.8,0.2,1.4,1.1,1.2,2c17.4,23.2,34.7,46.4,52.1,69.6c0.2,0.1,0.5,0.2,0.7,0.3c0.9,0.3,1,1.1,0.8,1.7c2.1,2.9,4.3,5.7,6.4,8.6
						c1.4,1.8,2.8,3.7,4.1,5.5c0.7-15.6,1.4-31.1,2.1-46.7c-2.4-2.5-6.5-8-8.5-14.3c2.8-0.7,5.9-1.1,9.1-1.1c4,0,7.7,0.4,11,1.4
						c-2.1,6.7-6.4,12.4-8.6,14.5c-0.7,16.4-1.5,32.9-2.2,49.3c0,0.2-0.1,0.4-0.1,0.6c10.5,14.1,21.1,28.2,31.6,42.2
						c1.2,1.6-1.4,3.3-2.6,1.7c-15.3-20.4-30.5-40.8-45.8-61.3c-20.5-7.7-40.7-16.3-60.5-25.6c-7.2,7.1-15.6,12.8-24.8,16.7
						c-0.8,1.8-4.3,6.4-9,9.4c-1-1.8-1.8-3.9-2.4-6.2C589.6,739.4,589.2,736.7,589.3,734.2z"/>
				</g>
				<g>
					
						<radialGradient id="SVGID_22_" cx="-1541.173" cy="-2080.9119" r="30.6023" gradientTransform="matrix(0.1586 0.9873 -0.9873 0.1586 -704.9071 2278.5642)" gradientUnits="userSpaceOnUse">
						<stop  offset="0" style="stop-color:#F2E1C7"/>
						<stop  offset="0.5737" style="stop-color:#F7E7CE"/>
						<stop  offset="1" style="stop-color:#FDEED7"/>
					</radialGradient>
					<path class="st26" d="M1108.5,447.2c0,0,0-0.1,0-0.1c0,0,0,0.1,0.1,0.1c5.6,6.9,12.4,8.4,17,4.7s4.5-10.7-1.1-17.6
						c0,0,0-0.1-0.1-0.1c0,0,0.1,0,0.1,0c8.8-1.4,13.5-6.6,12.5-12.4c-0.9-5.8-7-9.2-15.8-7.8c0,0-0.1,0-0.1,0c0,0,0-0.1,0-0.1
						c3.2-8.3,1-14.9-4.4-17c-5.5-2.1-11.5,1.5-14.6,9.7c0,0,0,0.1,0,0.1c0,0,0-0.1-0.1-0.1c-5.6-6.9-12.4-8.4-17-4.7
						s-4.5,10.7,1.1,17.6c0,0,0,0.1,0.1,0.1c0,0-0.1,0-0.1,0c-8.8,1.4-13.5,6.6-12.5,12.4c0.9,5.8,7,9.2,15.8,7.8c0,0,0.1,0,0.1,0
						c0,0,0,0.1,0,0.1c-3.2,8.3-1,14.9,4.4,17C1099.3,459,1105.3,455.5,1108.5,447.2z"/>
					<g>
						<path class="st1" d="M1117.6,425c-0.1-0.9-1.8-1.3-4.3-0.9c-2.5,0.4-4.8,2.2-4.8,2.4c0,0.2,2.8,1.2,5.3,0.8
							C1116.3,426.8,1117.7,425.9,1117.6,425z"/>
						<path class="st1" d="M1109.7,415.3c-0.9-0.3-2,0.9-3,3.3c-0.9,2.4-0.5,5.3-0.3,5.4c0.2,0.1,2.4-1.8,3.3-4.2
							S1110.6,415.6,1109.7,415.3z"/>
						<path class="st1" d="M1097.5,417.2c-0.7,0.6-0.2,2.2,1.4,4.2c1.6,2,4.3,3.1,4.5,3s-0.4-3-2-5
							C1099.7,417.5,1098.2,416.7,1097.5,417.2z"/>
						<path class="st1" d="M1093,428.8c0.1,0.9,1.8,1.3,4.3,0.9c2.5-0.4,4.8-2.2,4.8-2.4s-2.8-1.2-5.3-0.8
							C1094.3,427,1092.9,428,1093,428.8z"/>
						<path class="st1" d="M1100.8,438.5c0.9,0.3,2-0.9,3-3.3s0.5-5.3,0.3-5.4c-0.2-0.1-2.4,1.8-3.3,4.2
							C1099.9,436.5,1100,438.2,1100.8,438.5z"/>
						<path class="st1" d="M1113.1,436.6c0.7-0.6,0.2-2.2-1.4-4.2c-1.6-2-4.3-3.1-4.5-3c-0.1,0.1,0.4,3,2,5
							C1110.9,436.4,1112.4,437.2,1113.1,436.6z"/>
					</g>
				</g>
				<g>
					
						<radialGradient id="SVGID_23_" cx="-1518.1724" cy="-1968.29" r="30.6023" gradientTransform="matrix(0.1586 0.9873 -0.9873 0.1586 -704.9071 2278.5642)" gradientUnits="userSpaceOnUse">
						<stop  offset="0" style="stop-color:#F2E1C7"/>
						<stop  offset="0.5737" style="stop-color:#F7E7CE"/>
						<stop  offset="1" style="stop-color:#FDEED7"/>
					</radialGradient>
					<path class="st27" d="M1000.9,487.8c0,0,0-0.1,0-0.1c0,0,0,0.1,0.1,0.1c5.6,6.9,12.4,8.4,17,4.7c4.5-3.7,4.5-10.7-1.1-17.6
						c0,0,0-0.1-0.1-0.1c0,0,0.1,0,0.1,0c8.8-1.4,13.5-6.6,12.5-12.4c-0.9-5.8-7-9.2-15.8-7.8c0,0-0.1,0-0.1,0c0,0,0-0.1,0-0.1
						c3.2-8.3,1-14.9-4.4-17c-5.5-2.1-11.5,1.5-14.6,9.7c0,0,0,0.1,0,0.1c0,0,0-0.1-0.1-0.1c-5.6-6.9-12.4-8.4-17-4.7
						c-4.5,3.7-4.5,10.7,1.1,17.6c0,0,0,0.1,0.1,0.1c0,0-0.1,0-0.1,0c-8.8,1.4-13.5,6.6-12.5,12.4c0.9,5.8,7,9.2,15.8,7.8
						c0,0,0.1,0,0.1,0c0,0,0,0.1,0,0.1c-3.2,8.3-1,14.9,4.4,17S997.8,496,1000.9,487.8z"/>
					<g>
						<path class="st1" d="M1010,465.5c-0.1-0.9-1.8-1.3-4.3-0.9c-2.5,0.4-4.8,2.2-4.8,2.4c0,0.2,2.8,1.2,5.3,0.8
							C1008.7,467.4,1010.2,466.4,1010,465.5z"/>
						<path class="st1" d="M1002.2,455.9c-0.9-0.3-2,0.9-3,3.3s-0.5,5.3-0.3,5.4s2.4-1.8,3.3-4.2
							C1003.1,457.9,1003,456.2,1002.2,455.9z"/>
						<path class="st1" d="M989.9,457.8c-0.7,0.6-0.2,2.2,1.4,4.2c1.6,2,4.3,3.1,4.5,3c0.1-0.1-0.4-3-2-5
							C992.1,458,990.6,457.2,989.9,457.8z"/>
						<path class="st1" d="M985.4,469.4c0.1,0.9,1.8,1.3,4.3,0.9c2.5-0.4,4.8-2.2,4.8-2.4c0-0.2-2.8-1.2-5.3-0.8
							C986.7,467.6,985.3,468.5,985.4,469.4z"/>
						<path class="st1" d="M993.3,479.1c0.9,0.3,2-0.9,3-3.3c0.9-2.4,0.5-5.3,0.3-5.4s-2.4,1.8-3.3,4.2
							C992.3,477.1,992.4,478.8,993.3,479.1z"/>
						<path class="st1" d="M1005.6,477.1c0.7-0.6,0.2-2.2-1.4-4.2c-1.6-2-4.3-3.1-4.5-3c-0.1,0.1,0.4,3,2,5
							C1003.3,476.9,1004.8,477.7,1005.6,477.1z"/>
					</g>
				</g>
				<g>
					<path class="st3" d="M624.5,441c0,0,0-0.1,0-0.1c0,0,0,0.1,0.1,0.1c5.6,6.9,12.4,8.4,17,4.7c4.5-3.7,4.5-10.7-1.1-17.6
						c0,0,0-0.1-0.1-0.1c0,0,0.1,0,0.1,0c8.8-1.4,13.5-6.6,12.5-12.4c-0.9-5.8-7-9.2-15.8-7.8c0,0-0.1,0-0.1,0c0,0,0-0.1,0-0.1
						c3.2-8.3,1-14.9-4.4-17c-5.5-2.1-11.5,1.5-14.6,9.7c0,0,0,0.1,0,0.1c0,0,0-0.1-0.1-0.1c-5.6-6.9-12.4-8.4-17-4.7
						c-4.5,3.7-4.5,10.7,1.1,17.6c0,0,0,0.1,0.1,0.1c0,0-0.1,0-0.1,0c-8.8,1.4-13.5,6.6-12.5,12.4c0.9,5.8,7,9.2,15.8,7.8
						c0,0,0.1,0,0.1,0c0,0,0,0.1,0,0.1c-3.2,8.3-1,14.9,4.4,17C615.3,452.9,621.3,449.3,624.5,441z"/>
					<g>
						<path class="st1" d="M633.6,418.8c-0.1-0.9-1.8-1.3-4.3-0.9c-2.5,0.4-4.8,2.2-4.8,2.4c0,0.2,2.8,1.2,5.3,0.8
							C632.3,420.6,633.7,419.7,633.6,418.8z"/>
						<path class="st1" d="M625.7,409.1c-0.9-0.3-2,0.9-3,3.3s-0.5,5.3-0.3,5.4c0.2,0.1,2.4-1.8,3.3-4.2S626.6,409.5,625.7,409.1z"
							/>
						<path class="st1" d="M613.5,411.1c-0.7,0.6-0.2,2.2,1.4,4.2s4.3,3.1,4.5,3c0.1-0.1-0.4-3-2-5
							C615.7,411.3,614.2,410.5,613.5,411.1z"/>
						<path class="st1" d="M609,422.7c0.1,0.9,1.8,1.3,4.3,0.9c2.5-0.4,4.8-2.2,4.8-2.4s-2.8-1.2-5.3-0.8
							C610.3,420.9,608.9,421.8,609,422.7z"/>
						<path class="st1" d="M616.8,432.4c0.9,0.3,2-0.9,3-3.3c0.9-2.4,0.5-5.3,0.3-5.4c-0.2-0.1-2.4,1.8-3.3,4.2S616,432,616.8,432.4
							z"/>
						<path class="st1" d="M629.1,430.4c0.7-0.6,0.2-2.2-1.4-4.2c-1.6-2-4.3-3.1-4.5-3c-0.1,0.1,0.4,3,2,5S628.4,431,629.1,430.4z"
							/>
					</g>
				</g>
				<g>
					
						<radialGradient id="SVGID_24_" cx="-1557.5468" cy="-2318.6184" r="30.6023" gradientTransform="matrix(0.1586 0.9873 -0.9873 0.1586 -704.9071 2278.5642)" gradientUnits="userSpaceOnUse">
						<stop  offset="0" style="stop-color:#F2E1C7"/>
						<stop  offset="0.5737" style="stop-color:#F7E7CE"/>
						<stop  offset="1" style="stop-color:#FDEED7"/>
					</radialGradient>
					<path class="st28" d="M1340.6,393.3c0,0,0-0.1,0-0.1c0,0,0,0.1,0.1,0.1c5.6,6.9,12.4,8.4,17,4.7s4.5-10.7-1.1-17.6
						c0,0,0-0.1-0.1-0.1c0,0,0.1,0,0.1,0c8.8-1.4,13.5-6.6,12.5-12.4c-0.9-5.8-7-9.2-15.8-7.8c0,0-0.1,0-0.1,0c0,0,0-0.1,0-0.1
						c3.2-8.3,1-14.9-4.4-17c-5.5-2.1-11.5,1.5-14.6,9.7c0,0,0,0.1,0,0.1c0,0,0-0.1-0.1-0.1c-5.6-6.9-12.4-8.4-17-4.7
						c-4.5,3.7-4.5,10.7,1.1,17.6c0,0,0,0.1,0.1,0.1c0,0-0.1,0-0.1,0c-8.8,1.4-13.5,6.6-12.5,12.4c0.9,5.8,7,9.2,15.8,7.8
						c0,0,0.1,0,0.1,0c0,0,0,0.1,0,0.1c-3.2,8.3-1,14.9,4.4,17C1331.4,405.2,1337.4,401.6,1340.6,393.3z"/>
					<g>
						<path class="st1" d="M1349.7,371.1c-0.1-0.9-1.8-1.3-4.3-0.9c-2.5,0.4-4.8,2.2-4.8,2.4s2.8,1.2,5.3,0.8
							C1348.4,372.9,1349.8,372,1349.7,371.1z"/>
						<path class="st1" d="M1341.8,361.4c-0.9-0.3-2,0.9-3,3.3s-0.5,5.3-0.3,5.4c0.2,0.1,2.4-1.8,3.3-4.2
							C1342.8,363.5,1342.7,361.8,1341.8,361.4z"/>
						<path class="st1" d="M1329.6,363.4c-0.7,0.6-0.2,2.2,1.4,4.2c1.6,2,4.3,3.1,4.5,3c0.1-0.1-0.4-3-2-5
							C1331.8,363.6,1330.3,362.8,1329.6,363.4z"/>
						<path class="st1" d="M1325.1,375c0.1,0.9,1.8,1.3,4.3,0.9c2.5-0.4,4.8-2.2,4.8-2.4c0-0.2-2.8-1.2-5.3-0.8
							C1326.4,373.2,1325,374.1,1325.1,375z"/>
						<path class="st1" d="M1332.9,384.7c0.8,0.3,2-0.9,3-3.3s0.5-5.3,0.3-5.4s-2.4,1.8-3.3,4.2S1332.1,384.3,1332.9,384.7z"/>
						<path class="st1" d="M1345.2,382.7c0.7-0.6,0.2-2.2-1.4-4.2c-1.6-2-4.3-3.1-4.5-3c-0.1,0.1,0.4,3,2,5
							C1343,382.5,1344.5,383.3,1345.2,382.7z"/>
					</g>
				</g>
				<path class="st6" d="M815.1,706c7,30.1,4.2,61.8-8,90.2c-1.3,2.9,3,5.5,4.3,2.5c12.8-29.7,15.8-62.5,8.5-94
					C819.2,701.6,814.4,702.9,815.1,706L815.1,706z"/>
				<path class="st6" d="M972.6,702.2c-8.6,32.9-9.5,67.4-2.6,100.7c0.6,3.1,5.5,1.8,4.8-1.3c-6.7-32.5-5.8-66,2.6-98
					C978.3,700.4,973.5,699.1,972.6,702.2L972.6,702.2z"/>
				<path class="st6" d="M1095.5,713.4c-4.1,28.2-15.3,54.8-32.6,77.4c-2,2.6,2.4,5,4.3,2.5c17.6-22.9,29-50,33.1-78.6
					C1100.7,711.6,1095.9,710.2,1095.5,713.4L1095.5,713.4z"/>
				<path class="st6" d="M1220.4,699.4c-24,29.7-34.3,68.4-28.4,106.1c0.5,3.2,5.3,1.8,4.8-1.3c-5.6-35.7,4.4-73.1,27.1-101.2
					C1225.9,700.4,1222.4,696.9,1220.4,699.4L1220.4,699.4z"/>
				<g>
					<radialGradient id="SVGID_25_" cx="817.6889" cy="688.0343" r="26.7281" gradientUnits="userSpaceOnUse">
						<stop  offset="0" style="stop-color:#F2E1C7"/>
						<stop  offset="0.5737" style="stop-color:#F7E7CE"/>
						<stop  offset="1" style="stop-color:#FDEED7"/>
					</radialGradient>
					<path class="st29" d="M835.6,688.1C835.6,688.1,835.6,688.1,835.6,688.1C835.6,688,835.6,688,835.6,688.1
						c6.7-4,8.9-9.6,6.4-14.1c-2.6-4.4-8.6-5.3-15.3-1.5c0,0-0.1,0-0.1,0.1c0,0,0-0.1,0-0.1c0-7.7-3.8-12.5-8.9-12.5
						s-8.9,4.8-8.9,12.5c0,0,0,0.1,0,0.1c0,0-0.1,0-0.1-0.1c-6.7-3.9-12.7-3-15.3,1.5s-0.3,10.1,6.4,14c0,0,0.1,0,0.1,0
						c0,0-0.1,0-0.1,0c-6.7,3.9-8.9,9.5-6.4,14s8.6,5.3,15.3,1.5c0,0,0.1,0,0.1-0.1c0,0,0,0.1,0,0.1c0,7.7,3.8,12.5,8.9,12.5
						c5.1,0,8.9-4.8,8.9-12.5c0,0,0-0.1,0-0.1c0,0,0.1,0,0.1,0.1c6.7,3.9,12.7,3,15.3-1.5C844.5,697.6,842.3,692,835.6,688.1z"/>
					<g>
						<path class="st30" d="M817.7,677.2c-0.8,0-1.4,1.4-1.4,3.6c0,2.2,1.2,4.5,1.4,4.5s1.4-2.2,1.4-4.5
							C819.1,678.5,818.5,677.2,817.7,677.2z"/>
						<path class="st30" d="M808.3,682.6c-0.4,0.7,0.5,1.9,2.4,3c1.9,1.1,4.5,1.2,4.6,1c0.1-0.1-1.3-2.3-3.2-3.4
							C810.2,682.1,808.7,681.9,808.3,682.6z"/>
						<path class="st30" d="M808.3,693.4c0.4,0.7,1.9,0.5,3.8-0.6c1.9-1.1,3.3-3.3,3.2-3.4c-0.1-0.1-2.6-0.1-4.6,1
							C808.8,691.6,807.9,692.8,808.3,693.4z"/>
						<path class="st30" d="M817.7,698.9c0.8,0,1.4-1.4,1.4-3.6c0-2.2-1.2-4.5-1.4-4.5s-1.4,2.2-1.4,4.5
							C816.3,697.5,816.9,698.9,817.7,698.9z"/>
						<path class="st30" d="M827.1,693.5c0.4-0.7-0.5-1.9-2.4-3c-1.9-1.1-4.5-1.2-4.6-1s1.3,2.3,3.2,3.4
							C825.2,694,826.7,694.2,827.1,693.5z"/>
						<path class="st30" d="M827.1,682.6c-0.4-0.7-1.9-0.5-3.8,0.6c-1.9,1.1-3.3,3.3-3.2,3.4c0.1,0.1,2.6,0.1,4.6-1
							C826.6,684.5,827.5,683.3,827.1,682.6z"/>
					</g>
				</g>
				<g>
					<radialGradient id="SVGID_26_" cx="1099.3499" cy="698.8962" r="26.7281" gradientUnits="userSpaceOnUse">
						<stop  offset="0" style="stop-color:#F2E1C7"/>
						<stop  offset="0.5737" style="stop-color:#F7E7CE"/>
						<stop  offset="1" style="stop-color:#FDEED7"/>
					</radialGradient>
					<path class="st31" d="M1117.3,698.9C1117.2,698.9,1117.2,698.9,1117.3,698.9C1117.2,698.9,1117.2,698.9,1117.3,698.9
						c6.7-4,8.9-9.6,6.4-14.1c-2.6-4.4-8.6-5.3-15.3-1.5c0,0-0.1,0-0.1,0.1c0,0,0-0.1,0-0.1c0-7.7-3.8-12.5-8.9-12.5
						s-8.9,4.8-8.9,12.5c0,0,0,0.1,0,0.1c0,0-0.1,0-0.1-0.1c-6.7-3.9-12.7-3-15.3,1.5s-0.3,10.1,6.4,14c0,0,0.1,0,0.1,0
						c0,0-0.1,0-0.1,0c-6.7,3.9-8.9,9.5-6.4,14s8.6,5.3,15.3,1.5c0,0,0.1,0,0.1-0.1c0,0,0,0.1,0,0.1c0,7.7,3.8,12.5,8.9,12.5
						c5.1,0,8.9-4.8,8.9-12.5c0,0,0-0.1,0-0.1c0,0,0.1,0,0.1,0.1c6.7,3.9,12.7,3,15.3-1.5C1126.2,708.5,1124,702.8,1117.3,698.9z"/>
					<g>
						<path class="st30" d="M1099.4,688c-0.8,0-1.4,1.4-1.4,3.6c0,2.2,1.2,4.5,1.4,4.5s1.4-2.2,1.4-4.5
							C1100.8,689.4,1100.2,688,1099.4,688z"/>
						<path class="st30" d="M1090,693.4c-0.4,0.7,0.5,1.9,2.4,3c1.9,1.1,4.5,1.2,4.6,1c0.1-0.1-1.3-2.3-3.2-3.4
							C1091.8,692.9,1090.4,692.8,1090,693.4z"/>
						<path class="st30" d="M1089.9,704.3c0.4,0.7,1.9,0.5,3.8-0.6s3.3-3.3,3.2-3.4c-0.1-0.1-2.6-0.1-4.6,1
							C1090.4,702.4,1089.5,703.6,1089.9,704.3z"/>
						<path class="st30" d="M1099.3,709.8c0.8,0,1.4-1.4,1.4-3.6c0-2.2-1.2-4.5-1.4-4.5s-1.4,2.2-1.4,4.5
							C1097.9,708.4,1098.5,709.8,1099.3,709.8z"/>
						<path class="st30" d="M1108.7,704.4c0.4-0.7-0.5-1.9-2.4-3c-1.9-1.1-4.5-1.2-4.6-1c-0.1,0.1,1.3,2.3,3.2,3.4
							S1108.3,705,1108.7,704.4z"/>
						<path class="st30" d="M1108.8,693.5c-0.4-0.7-1.9-0.5-3.8,0.6s-3.3,3.3-3.2,3.4c0.1,0.1,2.6,0.1,4.6-1
							C1108.3,695.4,1109.2,694.2,1108.8,693.5z"/>
					</g>
				</g>
				<g>
					<radialGradient id="SVGID_27_" cx="975.2432" cy="679.0757" r="40.4513" gradientUnits="userSpaceOnUse">
						<stop  offset="0" style="stop-color:#F2E1C7"/>
						<stop  offset="0.5737" style="stop-color:#F7E7CE"/>
						<stop  offset="1" style="stop-color:#FDEED7"/>
					</radialGradient>
					<path class="st32" d="M1002.4,679.1c0,0-0.1,0-0.1-0.1c0,0,0.1,0,0.1-0.1c10.2-5.9,13.5-14.4,9.6-21.2
						c-3.9-6.7-13-8.1-23.1-2.2c0,0-0.1,0.1-0.1,0.1c0-0.1,0-0.1,0-0.2c0-11.7-5.7-18.9-13.5-18.9c-7.8,0-13.5,7.2-13.5,18.9
						c0,0.1,0,0.1,0,0.2c0,0-0.1-0.1-0.1-0.1c-10.2-5.9-19.3-4.5-23.1,2.2c-3.9,6.7-0.5,15.3,9.6,21.2c0,0,0.1,0,0.1,0.1
						c0,0-0.1,0-0.1,0.1c-10.2,5.9-13.5,14.4-9.6,21.2c3.9,6.7,13,8.1,23.1,2.2c0,0,0.1-0.1,0.1-0.1c0,0.1,0,0.1,0,0.2
						c0,11.7,5.7,18.9,13.5,18.9s13.5-7.2,13.5-18.9c0-0.1,0-0.1,0-0.2c0,0,0.1,0.1,0.1,0.1c10.2,5.9,19.3,4.5,23.1-2.2
						C1015.9,693.6,1012.5,685,1002.4,679.1z"/>
					<g>
						<path class="st1" d="M975.3,662.6c-1.2,0-2.1,2.1-2.1,5.5s1.9,6.8,2.1,6.8s2.1-3.4,2.1-6.8S976.5,662.6,975.3,662.6z"/>
						<path class="st1" d="M961,670.8c-0.6,1,0.8,2.9,3.7,4.5c2.9,1.7,6.8,1.8,6.9,1.6c0.1-0.2-1.9-3.5-4.8-5.2
							C963.9,670,961.6,669.8,961,670.8z"/>
						<path class="st1" d="M961,687.3c0.6,1,2.8,0.8,5.8-0.9c2.9-1.7,4.9-5,4.8-5.2c-0.1-0.2-4-0.1-6.9,1.6
							C961.7,684.4,960.4,686.2,961,687.3z"/>
						<path class="st1" d="M975.2,695.5c1.2,0,2.1-2.1,2.1-5.5s-1.9-6.8-2.1-6.8s-2.1,3.4-2.1,6.8S974,695.5,975.2,695.5z"/>
						<path class="st1" d="M989.5,687.3c0.6-1-0.8-2.9-3.7-4.5c-2.9-1.7-6.8-1.8-6.9-1.6c-0.1,0.2,1.9,3.5,4.8,5.2
							C986.6,688.1,988.9,688.4,989.5,687.3z"/>
						<path class="st1" d="M989.5,670.9c-0.6-1-2.8-0.8-5.8,0.9c-2.9,1.7-4.9,5-4.8,5.2c0.1,0.2,4,0.1,6.9-1.6
							C988.8,673.7,990.1,671.9,989.5,670.9z"/>
					</g>
				</g>
				<g>
					<radialGradient id="SVGID_28_" cx="1225.0328" cy="687.0006" r="36.8505" gradientUnits="userSpaceOnUse">
						<stop  offset="0" style="stop-color:#F2E1C7"/>
						<stop  offset="0.5737" style="stop-color:#F7E7CE"/>
						<stop  offset="1" style="stop-color:#FDEED7"/>
					</radialGradient>
					<path class="st33" d="M1249.7,687.1c0,0-0.1,0-0.1-0.1c0,0,0.1,0,0.1-0.1c9.3-5.3,12.3-13.2,8.8-19.3s-11.8-7.4-21.1-2
						c0,0-0.1,0-0.1,0.1c0,0,0-0.1,0-0.1c0-10.7-5.2-17.2-12.3-17.2s-12.3,6.6-12.3,17.2c0,0,0,0.1,0,0.1c0,0-0.1,0-0.1-0.1
						c-9.3-5.3-17.6-4.1-21.1,2c-3.5,6.1-0.5,13.9,8.8,19.3c0,0,0.1,0,0.1,0.1c0,0-0.1,0-0.1,0.1c-9.3,5.3-12.3,13.2-8.8,19.3
						c3.5,6.1,11.8,7.4,21.1,2c0,0,0.1,0,0.1-0.1c0,0,0,0.1,0,0.1c0,10.7,5.2,17.2,12.3,17.2c7.1,0,12.3-6.6,12.3-17.2
						c0,0,0-0.1,0-0.1c0,0,0.1,0,0.1,0.1c9.3,5.3,17.6,4.1,21.1-2S1259,692.4,1249.7,687.1z"/>
					<g>
						<path class="st1" d="M1225.1,672c-1.1,0-1.9,1.9-1.9,5s1.7,6.2,1.9,6.2c0.2,0,1.9-3.1,1.9-6.2S1226.2,672,1225.1,672z"/>
						<path class="st1" d="M1212.1,679.5c-0.5,0.9,0.7,2.6,3.4,4.1c2.7,1.5,6.2,1.6,6.3,1.4c0.1-0.2-1.7-3.2-4.4-4.7
							C1214.7,678.8,1212.6,678.5,1212.1,679.5z"/>
						<path class="st1" d="M1212,694.5c0.5,0.9,2.6,0.7,5.3-0.8c2.7-1.5,4.5-4.6,4.4-4.7c-0.1-0.2-3.6-0.1-6.3,1.4
							C1212.7,691.9,1211.5,693.5,1212,694.5z"/>
						<path class="st1" d="M1225,702c1.1,0,1.9-1.9,1.9-5s-1.7-6.2-1.9-6.2c-0.2,0-1.9,3.1-1.9,6.2S1223.9,702,1225,702z"/>
						<path class="st1" d="M1238,694.5c0.5-0.9-0.7-2.6-3.4-4.1c-2.7-1.5-6.2-1.6-6.3-1.4c-0.1,0.2,1.7,3.2,4.4,4.7
							C1235.4,695.2,1237.4,695.5,1238,694.5z"/>
						<path class="st1" d="M1238,679.5c-0.5-0.9-2.6-0.7-5.3,0.8c-2.7,1.5-4.5,4.6-4.4,4.7c0.1,0.2,3.6,0.1,6.3-1.4
							S1238.6,680.5,1238,679.5z"/>
					</g>
				</g>
			</g>
			<g>
				<linearGradient id="SVGID_29_" gradientUnits="userSpaceOnUse" x1="1000" y1="1596.0701" x2="1000" y2="1439.9917">
					<stop  offset="0" style="stop-color:#C0755E"/>
					<stop  offset="1" style="stop-color:#B15945"/>
				</linearGradient>
				<path class="st34" d="M1295.8,1517.3c-38.8,2-86.3-6.4-131.7-18.3c-25.1-6.6-42.6-29.3-42.6-55.2v-291.6h-243v291.6
					c0,25.9-17.5,48.7-42.6,55.2c-45.5,11.9-93,20.3-131.7,18.3c-111.8-5.8-260.2-46.3-269.8,223.5L399.7,2000H1000h600.3
					l-34.7-259.2C1556,1471,1407.6,1511.5,1295.8,1517.3z"/>
			</g>
			<path class="st35" d="M1336.2,1361.2c-1.8-11.5-3.8-22.9-5.6-34.4c-7-45.9-12-92-15.3-138.3c-3.2-46.1-4.3-92.1-4.4-138.3
				c0-42.8-0.7-87.3-16-127.9c-14.3-38.1-40.4-69.5-70-96.8c-14.6-13.4-29.9-25.9-45.3-38.3c-0.5-0.4-1-0.8-1.5-1.2H847.6
				c-22.6,13-44.1,27.7-63.6,45.1c-29.7,26.4-52.2,59-69.3,94.7c-17.1,35.6-29.6,73.2-43.5,110.1c-6.6,17.6-13.6,35.1-21.7,52.1
				c-9,18.9-19.8,36.7-30.6,54.6c-21.9,36.6-42.7,79.2-31.5,122.9c5.3,20.6,18.5,36.9,31.2,53.4c2.8,3.6,5.5,7.2,8,10.9
				c0.9,1.3,1.7,2.6,2.5,4c0.2,0.4,0.4,0.8,0.6,1.2c0,0.2,0.7,1.7,0.8,2c2.6,7.6,3.2,13.1,3.5,20.8c0.2,7.2-0.3,15.5-1.3,21.5
				c-0.6,3.7-1.5,7.4-2.5,11.1c-0.1,0.4-0.3,0.9-0.4,1.3c-12.5-1.1-13,25.5,0.8,27.6c59,9,72.9-8.1,111.6-12.8
				c18.5-2.2,37.4-2.1,54.8,5.1c17,7,31.4,19.2,45.5,30.7c15.1,12.4,30.3,24.5,47.4,33.9c16.4,9.1,34,16.2,52.1,21.3
				c36.9,10.3,75.9,11.9,113.6,5c18.5-3.4,36.5-9.2,53.7-16.8c19.3-8.6,37.1-20.2,54.6-31.9c33.9-22.7,70.3-49.3,112.5-51.8
				c18.7-1.1,43.4,7.9,56.2-10.8C1338.7,1382.3,1337.8,1371.3,1336.2,1361.2z"/>
			<path class="st36" d="M675.8,1068.5c7.1,47.8,51.7,80.9,99.5,73.8L749.5,969C701.7,976.1,668.7,1020.7,675.8,1068.5z"/>
			<path class="st37" d="M690.3,1066.2c5.8,38.8,41.9,65.6,80.7,59.8l-20.9-140.5C711.3,991.3,684.5,1027.4,690.3,1066.2z"/>
			<path class="st36" d="M1250.5,969l-25.7,173.3c47.8,7.1,92.4-25.9,99.5-73.8C1331.3,1020.7,1298.3,976.1,1250.5,969z"/>
			<path class="st37" d="M1249.9,985.5L1229,1126c38.8,5.8,74.9-21,80.7-59.8C1315.5,1027.4,1288.7,991.3,1249.9,985.5z"/>
			<linearGradient id="SVGID_30_" gradientUnits="userSpaceOnUse" x1="1000" y1="1596.0701" x2="1000" y2="1439.9917">
				<stop  offset="0" style="stop-color:#C0755E"/>
				<stop  offset="1" style="stop-color:#B15945"/>
			</linearGradient>
			<path class="st38" d="M1295.8,1517.3c-38.8,2-86.3-6.4-131.7-18.3c-25.1-6.6-42.6-29.3-42.6-55.2v-291.6h-243v291.6
				c0,25.9-17.5,48.7-42.6,55.2c-45.5,11.9-93,20.3-131.7,18.3c-111.8-5.8-260.2-46.3-269.8,223.5L399.7,2000H1000h600.3
				l-34.7-259.2C1556,1471,1407.6,1511.5,1295.8,1517.3z"/>
			<path class="st37" d="M878.5,1368.6c39.2,35.7,84.1,59.7,130.2,59.7c39.4,0,78-17.6,112.8-45v-218.2h-243V1368.6z"/>
			<linearGradient id="SVGID_31_" gradientUnits="userSpaceOnUse" x1="999.9999" y1="1289.8918" x2="999.9999" y2="921.9753">
				<stop  offset="0" style="stop-color:#C0755E"/>
				<stop  offset="1" style="stop-color:#B15945"/>
			</linearGradient>
			<path class="st39" d="M1268.6,796.3c-0.6-3.5-1.3-6.9-2.1-10.3H733.4c-0.7,3.4-1.4,6.8-2.1,10.3
				C703,957.4,754.5,943.8,743,1050.8c-10.8,100.3,118.3,318.2,257,318.2c138.7,0,267.9-217.9,257-318.2
				C1245.5,943.8,1297,957.4,1268.6,796.3z"/>
			<path class="st40" d="M939.5,965.5c0,0-75.9-21.6-106-14.6c-30,6.9-59.3,36.8-59.3,36.8s33.9-15,49.9-14.7
				c26.7,0.5,107,14.6,110.6,14.5C938.3,987.2,957.3,977.3,939.5,965.5z"/>
			<path class="st40" d="M1162.2,950.8c-30-6.9-106,14.6-106,14.6c-17.8,11.8,1.2,21.8,4.8,21.9c3.6,0.1,83.9-14,110.6-14.5
				c15.9-0.3,49.9,14.7,49.9,14.7S1192.2,957.8,1162.2,950.8z"/>
			<g>
				<path class="st41" d="M1045.1,1214.6l-24.3-18.4L1000,1217l-20.8-20.8l-24.3,18.4l-14.7,10.4h-15.8c0,0,21.8,50.9,75.6,50.9
					c49.6,0,75.6-50.9,75.6-50.9h-15.8L1045.1,1214.6z"/>
				<path class="st0" d="M998.8,1212h-24.2l-14.7,14c0,0,17.1,7.4,40.1,7.4c23,0,35.6-8.4,35.6-8.4l-13.5-13.1H998.8z"/>
				<path class="st3" d="M1007.3,1194.8c-4.5,3.1-10.3,3.1-14.8,0.2c-4.3-2.8-10.5-4.3-19.4-1.2c-20.2,7.2-30.3,31.3-48.6,31.3
					c0,0,33.8,5.3,45.9-2.4c12.1-7.7,29.7-3.1,29.7-3.1s17.6-4.6,29.7,3.1c12.1,7.7,45.9,2.4,45.9,2.4c-18.4,0-29-24.3-49.2-31.6
					C1017.5,1190.3,1011.4,1191.9,1007.3,1194.8z"/>
			</g>
			<linearGradient id="SVGID_32_" gradientUnits="userSpaceOnUse" x1="1000.0001" y1="1549.8567" x2="1000.0001" y2="1954.0717">
				<stop  offset="0" style="stop-color:#DB9F25"/>
				<stop  offset="1" style="stop-color:#CD891C"/>
			</linearGradient>
			<path class="st42" d="M1565.6,1740.8c-9.6-269.8-158-229.3-269.8-223.5c-27.3,1.4-59-2.4-91.2-8.9c10.6-10,16.9-27,16.9-41.3
				c0-14.5-6.4-31.8-17.3-41.7c-11.2-10.3-26-18-41.7-17.3c-16,0.7-29.8,6.3-41.7,17.3c-3.1,2.8-6.3,5.6-9.5,8.3
				c-12.5,9-25.9,16.8-39.9,23.2c-15,5.7-30.4,10-46.2,12.7c-15.2,1.5-30.5,1.5-45.7,0c-15.7-2.7-31.2-7-46.1-12.7
				c-14.1-6.5-27.5-14.3-40.1-23.4c-4.8-4-9.5-8.2-14-12.5c-11-10.6-26.3-17.3-41.7-17.3c-14.5,0-31.8,6.4-41.7,17.3
				c-10.3,11.2-18,26-17.3,41.7c0.7,15.5,5.9,30.7,17.3,41.7c1.1,1.1,2.2,2.1,3.3,3.2c-33.5,7-66.6,11.1-95,9.6
				c-111.8-5.8-260.2-46.3-269.8,223.5L399.7,2000H1000h600.3L1565.6,1740.8z"/>
			<linearGradient id="SVGID_33_" gradientUnits="userSpaceOnUse" x1="955.2595" y1="1055.3888" x2="955.2595" y2="1425.5546">
				<stop  offset="0" style="stop-color:#472F2F"/>
				<stop  offset="1" style="stop-color:#382424"/>
			</linearGradient>
			<path class="st43" d="M1411,1227.7c-3.4-31.5-21.2-58.7-38.4-84.4c-15.3-23-30-46.3-35.6-73.3c6.2-33,17.1-64.6,21.2-98.1
				c4-31.8,2.8-63.9-2.3-95.5c-5.1-31.5-14.8-61.9-28.6-90.5h-227.6c0.2,0.6,0.4,1.3,0.6,1.9c7.4,22,17.9,43,30.1,62.7
				c6.5,10.6,14.4,20.2,23.7,28.4c8.6,7.6,18,14.2,26.9,21.5c19.9,16.3,36,37.4,48.9,59.5c10.3,17.7,17.3,36.5,19.7,56.4
				c-10-15.3-21.6-29.7-33.7-42.9c-38.9-42.4-87.1-80.1-108.8-135.2c-6.6-16.8-10.6-34.6-10.5-52.4h-12.2
				c-0.3,40.6,19.9,81.1,44.7,112.6c36.4,46.1,85.6,81.6,115.7,132.7c1.8,3.1,3.5,6.2,5.2,9.4c-1.7,26.4-8.8,52.2-10,78.7
				c-1.2,26.2,5.7,50,17,73.4c10.4,21.5,23.5,42.1,29.9,65.3c8.3,30.5-3.8,61,0.7,91.8c4,27.7,26.5,51.8,55.2,52.7
				c6.9,2.4,15.7-0.7,19.1-7.1c4.2-8,1.7-17-5.7-21.9c-0.4-0.3-0.9-0.6-1.3-0.9c0,0,0,0,0,0c-0.8-0.9-1.9-1.7-2.7-2.6
				c-0.9-1-2.7-3.6-1-1c-0.8-1.2-1.6-2.4-2.3-3.6c-0.5-0.9-0.9-1.7-1.3-2.6c0,0-0.4-1.1-0.7-2c-0.5-1.4-0.8-2.8-1.2-4.2
				c-0.1-0.6-0.3-1.2-0.4-1.9c0-0.2-0.1-0.8-0.2-1.4c-0.1-0.7-0.3-2.3-0.3-2.7c-0.1-1.5-0.2-3.1-0.2-4.6c0-3.1,0.2-6.2,0.4-9.4
				c0,0,0-0.1,0-0.3c0.1-0.5,0.2-1.3,0.2-1.5c0.2-1.3,0.5-2.7,0.7-4c0.6-3.1,1.4-6.2,2.3-9.2c0.3-1,0.6-1.9,0.9-2.8
				c10.2-8.5,23.4-12.9,34.1-20.7C1405.2,1281.9,1413.8,1254.2,1411,1227.7z M1372.4,1290.8c-4.9,3.1-10.2,5.9-15.3,8.7
				c2.4-5.1,5-10.3,7.6-15.9c7.1-15.6,12.9-31.3,14.2-48.5c2.3-30.9-15.2-57-29.6-82.7c-1.6-2.9-3.2-5.9-4.8-8.9
				c-0.8-1.6-1.6-3.2-2.4-4.9c-0.3-0.7-0.6-1.4-1-2.1c-0.1-0.2-0.2-0.4-0.2-0.5c-2.9-7-4.9-14.3-6.2-21.8c-0.6-3.4-0.2-1.8-0.2-1
				c-0.1-0.9-0.2-1.8-0.3-2.6c-0.2-2.1-0.3-4.1-0.4-6.2c0-1.2-0.1-2.4-0.1-3.6c5,11.5,11.2,22.4,18,33c17.4,27.3,38.6,53.7,45.7,86
				C1403.4,1246.3,1396.4,1275.7,1372.4,1290.8z M670.7,786c-30,51.9-48.8,110-56.3,169.5c-2.4,19.5-3.2,39-3.5,58.6
				c-0.1,7.9-0.2,15.7-0.3,23.6c-2.2,7.8-4.7,15.4-7.4,23c-8.6,24.1-20.4,46.6-35.9,67c-14.4,19-31,36.5-44.4,56.3
				c-12.9,19-22.4,40.3-23.7,63.5c-1.2,20.9,3.8,42.1,13.5,60.7c11.4,21.8,29.6,39.2,52,49.5c17,7.8,40,14.2,53.6,28.4
				c0,1,0,1.9,0,2.9c0,0.9-0.1,1.7-0.2,2.6c0,0.4-0.1,1-0.1,1.1c-0.6,2.7-1.2,5.3-2.1,7.9c-2.6,8,3,17.8,11.2,19.7
				c6.7,1.5,13-0.8,16.8-5.8c8.7-5.8,15.3-14.9,20-23.9c6.1-11.7,10.2-24.7,10.9-37.9c1.2-24.3-15.1-43.1-27.6-62.5
				c0.2-1.7,0.4-3.4,0.8-5.1c3.6-19.2,13.2-35.5,27.6-48.5c15.9-14.3,34.2-25.6,46-43.9c11.1-17.3,16.1-38,17.1-58.4
				c0.5-11.1-0.2-22.1-1.6-33.1c4.9-21.2,6-43.5,7.4-65.2c2.2-32.3,6.5-63.8,24.9-91.3c38-56.8,107.9-78.3,169.2-99.2
				c42.1-14.4,86.5-31.5,121.6-59.6H670.7z M592.7,1356.5c-12.2-5.2-24.8-9.5-36-16.8c-8.5-5.5-16-12.5-22.4-20.3
				c-12.9-15.9-21.2-36.2-22.9-56.7c-1.9-22.2,4.1-43.1,15.3-62.2c12-20.4,28.1-37.8,42.8-56.2c14.9-18.5,27.5-38.1,37.1-59.8
				c-1.2,5.7-2.7,12-4.3,17.2c-0.7,2.3-1.5,4.6-2.4,6.9c-0.3,0.8-0.6,1.6-1,2.4c-0.2,0.4-0.5,1.1-0.6,1.3c-2.3,4.9-4.8,9.6-7.7,14.1
				c-2.2,3.5-4.6,6.9-7.1,10.1c-0.1,0.1-0.1,0.2-0.2,0.2c-0.1,0.2-0.3,0.4-0.5,0.6c-0.6,0.8-1.2,1.5-1.9,2.3
				c-1.6,1.9-3.1,3.8-4.7,5.7c-5.7,6.8-11.5,13.4-16.9,20.4c-12.7,16.3-22.7,33.7-24.8,54.6c-2,20.6,5.5,41.1,16.1,58.4
				c11,17.8,25.5,33,38.9,49c9.9,11.7,19.7,25.5,25,40.3C607.8,1363.4,600.2,1359.6,592.7,1356.5z M709.3,1189.3
				c-12.3,17.7-32,28.3-47.1,43.3c-11.3,11.3-19.5,25.3-23.9,40.6c-2.7-9-2.9-19-1-28.1c3-14.1,11.1-26,20.7-36.4
				c22.7-24.7,51.5-44.4,67.3-74.9c0.5-0.9,0.9-1.8,1.3-2.7C726.2,1151.7,721.7,1171.6,709.3,1189.3z"/>
			<path class="st36" d="M1075.6,1030c0,0,45.9-51.7,94,0l-22,12l-26.1,4l-27.4-7.3L1075.6,1030z"/>
			<path class="st36" d="M924.4,1030c0,0-45.9-51.7-94,0l22,12l26.1,4l27.4-7.3L924.4,1030z"/>
			<path class="st40" d="M1071.3,1025.9c3.5-3.5,8.4-2.9,12,0c23.8,19.1,58.7,17.7,81.3-2.4c6.7-5.9,15.9,1,14.6,7.7
				c4.3,1.7,11.9,4,20.3,3.4c0,0-11.9,3.8-23.9,2c3,1.8,7.2,3.7,12,4.4c0,0-7.7,0.6-15.6-1.7c-0.8,0.6-1.6,1.2-2.4,1.8
				c3.4,1.2,8.2,2.7,13,3.4c0,0-8.7,2.5-17.7-0.3c-29,17.9-66.2,15.7-93.6-6.3C1067.7,1035,1068.3,1028.9,1071.3,1025.9z"/>
			<path class="st40" d="M928.7,1025.9c-3.5-3.5-8.4-2.9-12,0c-23.8,19.1-58.7,17.7-81.3-2.4c-6.7-5.9-15.9,1-14.6,7.7
				c-4.3,1.7-11.9,4-20.3,3.4c0,0,11.9,3.8,23.9,2c-3,1.8-7.2,3.7-12,4.4c0,0,7.7,0.6,15.6-1.7c0.8,0.6,1.6,1.2,2.4,1.8
				c-3.4,1.2-8.2,2.7-13,3.4c0,0,8.7,2.5,17.7-0.3c29,17.9,66.2,15.7,93.6-6.3C932.3,1035,931.7,1028.9,928.7,1025.9z"/>
			<g>
				<path class="st44" d="M850,1580.6c5.3-7,10.7-14,16-21c3.9-5.1-4.8-10.1-8.6-5c-5.3,7-10.7,14-16,21
					C837.5,1580.7,846.2,1585.6,850,1580.6z"/>
				<path class="st44" d="M464.9,1718.5c-3.4-5.4-12.1-0.4-8.6,5c5.7,9,11.3,18,17,27c3.4,5.4,12.1,0.4,8.6-5
					C476.3,1736.5,470.6,1727.5,464.9,1718.5z"/>
				<path class="st44" d="M770.5,1983.9c4.3-4.8-2.8-11.9-7.1-7.1c-6.9,7.7-13.8,15.4-20.7,23.1h13.4
					C760.9,1994.6,765.7,1989.3,770.5,1983.9z"/>
				<path class="st44" d="M478.4,1610.8c3.9-5-3.1-12.1-7.1-7.1c-7.3,9.4-14.6,18.7-21.9,28.1c-2.1,7.4-4,15.2-5.7,23.5
					C455.3,1640.4,466.9,1625.6,478.4,1610.8z"/>
				<path class="st44" d="M420.8,1845.3c1.1,6.3,10.7,3.6,9.6-2.7c-1.4-8.3-2.8-16.6-4.2-25c-0.2-1.4-0.9-2.4-1.8-3l-3.9,29.3
					C420.6,1844.4,420.7,1844.9,420.8,1845.3z"/>
				<path class="st44" d="M484.5,1998.1c5.8-2.8,0.7-11.4-5-8.6c-5.9,2.8-11.3,6.3-16.1,10.5h17.5
					C482.1,1999.4,483.3,1998.7,484.5,1998.1z"/>
				<path class="st44" d="M416.2,1974.2c5.6,3.2,10.6-5.4,5-8.6c-5.2-3-10.5-6.1-15.7-9.1l-1.4,10.7
					C408.1,1969.5,412.1,1971.8,416.2,1974.2z"/>
				<path class="st44" d="M860.8,1513.7c5.4,3.5,10.4-5.1,5-8.6c-6.3-4.1-12.5-8.2-18.8-12.3c-5.4-3.5-10.4,5.1-5,8.6
					C848.3,1505.5,854.6,1509.6,860.8,1513.7z"/>
				<path class="st44" d="M1199.7,1463.9c5.5,8.5,11,17.1,16.6,25.6c0.1,0.2,0.3,0.4,0.4,0.5c1.7-4.1,2.9-8.3,3.7-12.5
					c-4-6.2-8.1-12.5-12.1-18.7C1204.9,1453.5,1196.2,1458.5,1199.7,1463.9z"/>
				<path class="st44" d="M1282.1,1772.5c-5.6-6.4-10.2-13.5-14-21.1c-2.9-5.8-11.5-0.7-8.6,5c4.2,8.4,9.4,16.1,15.6,23.1
					C1279.2,1784.5,1286.3,1777.4,1282.1,1772.5z"/>
				<path class="st44" d="M1262.9,1950.7c-2.3,8.7-4.6,17.3-7,26c-1.7,6.2,8,8.9,9.6,2.7c2.3-8.7,4.6-17.3,7-26
					C1274.2,1947.1,1264.5,1944.5,1262.9,1950.7z"/>
				<path class="st44" d="M1110.8,1648.3c2.5,8.6,6.6,16.3,12.2,23.2c4.1,5,11.1-2.1,7.1-7.1c-4.5-5.6-7.7-11.9-9.7-18.8
					C1118.7,1639.5,1109.1,1642.1,1110.8,1648.3z"/>
				<path class="st44" d="M849.6,1666c0.7-9,1.3-18,2-27c0.5-6.4-9.5-6.4-10,0c-0.7,9-1.3,18-2,27
					C839.1,1672.4,849.1,1672.4,849.6,1666z"/>
				<path class="st44" d="M979.2,1500.2c7.7,5,15.3,10,23,15c5.4,3.5,10.4-5.1,5-8.6c-7.7-5-15.3-10-23-15
					C978.8,1488,973.8,1496.7,979.2,1500.2z"/>
				<path class="st44" d="M850.1,1853.5c6.5,7,14.9,11.9,24.2,14.3c6.2,1.6,8.9-8.1,2.7-9.6c-7.7-1.9-14.4-5.9-19.8-11.7
					C852.8,1841.7,845.7,1848.8,850.1,1853.5z"/>
				<path class="st44" d="M566.5,1816.7c-3.3-9-6.7-18-10-27c-2.2-6-11.9-3.4-9.6,2.7c3.3,9,6.7,18,10,27
					C559.1,1825.3,568.7,1822.7,566.5,1816.7z"/>
				<path class="st44" d="M808.3,1771.9c5.8,2.8,10.8-5.8,5-8.6c-8.1-4-15.3-9-21.6-15.3c-4.6-4.5-11.6,2.5-7.1,7.1
					C791.6,1761.8,799.5,1767.6,808.3,1771.9z"/>
				<path class="st44" d="M747.6,1532.7c-3.2,5.6,5.4,10.6,8.6,5c4.4-7.6,8.8-15.2,13.2-22.9c0.4-0.7,0.6-1.3,0.7-2
					c-4.1,0.6-8.1,1.2-12.1,1.7C754.6,1520.6,751.1,1526.6,747.6,1532.7z"/>
				<path class="st44" d="M695.6,1820.3c9.8,0.5,18.9,3.3,27.4,8.2c5.6,3.2,10.6-5.4,5-8.6c-10-5.8-20.9-8.9-32.4-9.5
					C689.2,1810,689.2,1820,695.6,1820.3z"/>
				<path class="st44" d="M772.7,1652.4c4.8-10.8,12.4-19.7,22.5-26c5.5-3.4,0.4-12-5-8.6c-11.5,7.1-20.6,17.3-26.1,29.6
					C761.4,1653.2,770.1,1658.3,772.7,1652.4z"/>
				<path class="st44" d="M825.3,1427.8c6,2.3,8.6-7.4,2.7-9.6c-5.3-2-9.8-5.4-13.2-9.8c-3.2,1.3-6.2,2.8-9,4.6
					C810.5,1419.8,817.3,1424.9,825.3,1427.8z"/>
				<path class="st44" d="M772.6,1908.2c5.2-7.2,9-15.2,11.4-23.8c1.7-6.2-7.9-8.9-9.6-2.7c-2.2,7.8-5.7,14.8-10.4,21.4
					C760.1,1908.4,768.8,1913.4,772.6,1908.2z"/>
				<path class="st44" d="M691.1,1526.5c5,3.9,12.1-3.1,7.1-7.1c-1.2-0.9-2.4-1.8-3.5-2.7c-5.9-0.4-11.8-0.8-17.9-1.3
					C681.6,1519.1,686.3,1522.8,691.1,1526.5z"/>
				<path class="st44" d="M624.4,1929.3c14.1,4.2,27.1,11.1,38.5,20.4c4.9,4,12.1-3,7.1-7.1c-12.8-10.4-27.1-18.2-42.9-22.9
					C620.9,1917.8,618.3,1927.5,624.4,1929.3z"/>
				<path class="st44" d="M477,1887c12.7-2,25.3-4,38-6c6.3-1,3.6-10.6-2.7-9.6c-12.7,2-25.3,4-38,6C468,1878.4,470.7,1888,477,1887
					z"/>
				<path class="st44" d="M595.3,1676.9c-9.1,6.6-18.1,13.1-27.2,19.7c-5.2,3.7-0.2,12.4,5,8.6c9.1-6.6,18.1-13.1,27.2-19.7
					C605.5,1681.8,600.5,1673.2,595.3,1676.9z"/>
				<path class="st44" d="M512.6,1604c7.4,6.6,16,11.4,25.6,14c6.2,1.7,8.9-8,2.7-9.6c-8-2.1-15.1-5.9-21.2-11.4
					C514.9,1592.6,507.8,1599.6,512.6,1604z"/>
				<path class="st44" d="M1241,1543.5c-10.3,5.7-20.7,11.3-31,17c-5.6,3.1-0.6,11.7,5,8.6c10.3-5.7,20.7-11.3,31-17
					C1251.7,1549,1246.6,1540.4,1241,1543.5z"/>
				<path class="st44" d="M692.6,1714.6c-2.8-8.8-7-16.9-12.5-24.2c-3.8-5.1-12.5-0.1-8.6,5c5.1,6.7,9,13.9,11.5,21.9
					C684.9,1723.4,694.6,1720.8,692.6,1714.6z"/>
				<path class="st44" d="M687.1,1595.3c5.3,3.7,10.3-5,5-8.6c-6.7-4.7-13.3-9.3-20-14c-5.3-3.7-10.3,5-5,8.6
					C673.8,1586,680.4,1590.6,687.1,1595.3z"/>
				<path class="st44" d="M569.3,1995.7c8.6-8.4,17.2-16.8,25.7-25.3c4.6-4.5-2.5-11.6-7.1-7.1c-8.6,8.4-17.2,16.8-25.7,25.3
					C557.6,1993.1,564.7,2000.2,569.3,1995.7z"/>
				<path class="st44" d="M606.8,1532.2c-5.3,5.7-10.6,11.4-15.9,17c-4.4,4.7,2.7,11.8,7.1,7.1c5.3-5.7,10.6-11.4,15.9-17
					C618.3,1534.6,611.3,1527.5,606.8,1532.2z"/>
				<path class="st44" d="M1070.8,1518.9c6.4,2.9,12.8,5.7,19.2,8.6c5.8,2.6,10.9-6,5-8.6c-6.4-2.9-12.8-5.7-19.2-8.6
					C1070.1,1507.6,1065,1516.3,1070.8,1518.9z"/>
				<path class="st44" d="M1481.1,1921.2c2.4,5.9,12.1,3.3,9.6-2.7c-3.5-8.7-7.1-17.4-10.6-26.1c-2.4-5.9-12.1-3.3-9.6,2.7
					C1474,1903.8,1477.5,1912.5,1481.1,1921.2z"/>
				<path class="st44" d="M1473.5,1796.3c2.4-8.6,6.6-16.3,12.6-22.9c4.3-4.8-2.7-11.8-7.1-7.1c-7.2,7.9-12.3,17-15.2,27.3
					C1462.1,1799.9,1471.7,1802.5,1473.5,1796.3z"/>
				<path class="st44" d="M1491.9,1611.1c-4.4,10.8-8.9,21.6-13.3,32.5c-2.4,6,7.2,8.5,9.6,2.7c4.4-10.8,8.9-21.6,13.3-32.5
					C1504,1607.8,1494.3,1605.2,1491.9,1611.1z"/>
				<path class="st44" d="M1449.9,1523.6c6.7,4.6,13.4,9.2,20.2,13.8c5.3,3.6,10.3-5,5-8.6c-0.3-0.2-0.7-0.5-1-0.7
					c-8.4-4.1-17.2-7.3-26.3-9.7C1447.4,1520.2,1447.9,1522.2,1449.9,1523.6z"/>
				<path class="st44" d="M1498.4,1841.2c5.3,6.4,10.5,12.8,15.8,19.2c4.1,5,11.1-2.1,7.1-7.1c-5.3-6.4-10.5-12.8-15.8-19.2
					C1501.4,1829.2,1494.4,1836.3,1498.4,1841.2z"/>
				<path class="st44" d="M1012.4,1685.2c-4.5-4.9-9-9.7-13.5-14.6c-4.4-4.7-11.4,2.4-7.1,7.1c4.5,4.9,9,9.7,13.5,14.6
					C1009.7,1697,1016.8,1689.9,1012.4,1685.2z"/>
				<path class="st44" d="M1150.9,1979.5c3-5.7-5.6-10.8-8.6-5c-4.5,8.5-8.9,17-13.4,25.5h11.3
					C1143.7,1993.2,1147.3,1986.3,1150.9,1979.5z"/>
				<path class="st44" d="M1198.2,1863.1c-6.3-1.5-8.9,8.2-2.7,9.6c12.8,3,25.3,7,37.3,12.1c5.9,2.5,11-6.1,5-8.6
					C1225,1870.7,1211.8,1866.3,1198.2,1863.1z"/>
				<path class="st44" d="M1549.5,1713c-0.6,6.4,9.4,6.4,10,0c0.7-7.6,1.5-15.3,2.2-22.9c-1.1-9-2.4-17.5-3.8-25.6
					c-2,0.5-3.9,2-4.1,4.6C1552.4,1683.7,1551,1698.3,1549.5,1713z"/>
				<path class="st44" d="M1516.9,1991.4c6.3-1.1,3.6-10.7-2.7-9.6c-21.3,3.7-41.9,9.8-61.7,18.3h28.6
					C1492.8,1996.3,1504.7,1993.5,1516.9,1991.4z"/>
				<path class="st44" d="M1310.3,1519.6c9,3,18,6,27,9c6.1,2,8.7-7.6,2.7-9.6c-4-1.3-8-2.7-12-4c-7,0.6-14,1.1-20.8,1.6
					C1307.6,1517.9,1308.7,1519,1310.3,1519.6z"/>
				<path class="st44" d="M1582.1,1922.6c2.1-3.8,4.2-7.6,6.3-11.4l-2.2-16.6c-4.2,7.7-8.5,15.3-12.7,23
					C1570.3,1923.2,1579,1928.3,1582.1,1922.6z"/>
				<path class="st44" d="M1373.8,1805.2c-4.3,8-8.6,16.1-12.8,24.1c-3,5.7,5.6,10.7,8.6,5c4.3-8,8.6-16.1,12.8-24.1
					C1385.5,1804.6,1376.8,1799.5,1373.8,1805.2z"/>
				<path class="st44" d="M1395.4,1698.5c3.8,10.6,7.6,21.2,11.4,31.9c2.1,6,11.8,3.4,9.6-2.7c-3.8-10.6-7.6-21.2-11.4-31.9
					C1402.9,1689.8,1393.3,1692.4,1395.4,1698.5z"/>
				<path class="st44" d="M1394.2,1581.4c7-5.3,14-10.6,21-15.9c5.1-3.8,0.1-12.5-5-8.6c-7,5.3-14,10.6-21,15.9
					C1384.1,1576.6,1389.1,1585.3,1394.2,1581.4z"/>
				<path class="st44" d="M1343.6,1906.1c-6.4-0.2-6.4,9.8,0,10c11,0.4,22,0.7,33,1.1c6.4,0.2,6.4-9.8,0-10
					C1365.6,1906.8,1354.6,1906.4,1343.6,1906.1z"/>
				<path class="st44" d="M1317.2,1672.2c5.6,3.3,10.6-5.4,5-8.6c-9.6-5.6-18.3-12.2-26.2-19.9c-4.6-4.5-11.7,2.6-7.1,7.1
					C1297.4,1659,1306.9,1666.2,1317.2,1672.2z"/>
				<path class="st44" d="M1054.9,1586.5c-3.4-5.4-12.1-0.4-8.6,5c4,6.3,8,12.7,12,19c3.4,5.4,12.1,0.4,8.6-5
					C1062.9,1599.2,1058.9,1592.9,1054.9,1586.5z"/>
				<path class="st44" d="M1099.8,1450c0.3,6.4,10.3,6.4,10,0c-0.3-4.9-0.5-9.9-0.8-14.8c-3.2,2.2-6.4,4.4-9.7,6.4
					C1099.5,1444.4,1099.6,1447.2,1099.8,1450z"/>
				<path class="st44" d="M1068.3,1926.2c9.2,8.2,18.4,16.3,27.6,24.5c4.8,4.3,11.9-2.8,7.1-7.1c-9.2-8.2-18.4-16.3-27.6-24.5
					C1070.6,1914.9,1063.5,1922,1068.3,1926.2z"/>
				<path class="st44" d="M1176.1,1413.2c1.3-0.8,2-1.9,2.2-3.1c-4-1.2-8-1.9-12.2-2c-5.2,4.2-9.6,9.4-12.7,15.5
					c-3,5.7,5.7,10.8,8.6,5C1165.3,1422.2,1170,1417,1176.1,1413.2z"/>
				<path class="st44" d="M1140.5,1761c0.8,7,1.5,14,2.3,21c0.7,6.3,10.7,6.4,10,0c-0.8-7-1.5-14-2.3-21
					C1149.8,1754.7,1139.8,1754.6,1140.5,1761z"/>
				<path class="st44" d="M1178.6,1633c0,9.7,0,19.3,0,29c0,6.4,10,6.4,10,0c0-9.7,0-19.3,0-29
					C1188.6,1626.6,1178.6,1626.6,1178.6,1633z"/>
				<path class="st44" d="M1161,1531.5c-3-6.7-6-13.3-9-20c-2.6-5.9-11.3-0.8-8.6,5c3,6.7,6,13.3,9,20
					C1155,1542.4,1163.6,1537.3,1161,1531.5z"/>
				<path class="st44" d="M1022.8,1863.1c11.4-2.5,22.7-5.1,34.1-7.6c6.3-1.4,3.6-11-2.7-9.6c-11.4,2.5-22.7,5.1-34.1,7.6
					C1013.8,1854.8,1016.5,1864.5,1022.8,1863.1z"/>
				<path class="st44" d="M1056.5,1469.6c-1.7,6.2,8,8.9,9.6,2.7c1.3-5,2.7-10,4-15c-3.8,1.4-7.6,2.7-11.4,4
					C1058,1464,1057.2,1466.8,1056.5,1469.6z"/>
				<path class="st44" d="M937.8,1458.5c-4.8,1.7-9.6,3.3-14.4,5c-6,2.1-3.4,11.7,2.7,9.6c9.2-3.2,18.4-6.3,27.6-9.5
					C948.3,1462.1,943,1460.4,937.8,1458.5z"/>
				<path class="st44" d="M922.1,1670.5c4.7-5.3,9.5-10.5,14.2-15.8c4.3-4.8-2.8-11.9-7.1-7.1c-4.7,5.3-9.5,10.5-14.2,15.8
					C910.8,1668.2,917.8,1675.3,922.1,1670.5z"/>
				<path class="st44" d="M951.4,1552.7c-2-6-4-12-6-18c-2-6.1-11.7-3.5-9.6,2.7c2,6,4,12,6,18
					C943.8,1561.4,953.5,1558.8,951.4,1552.7z"/>
				<path class="st44" d="M1035.1,1782.5c7.4-8.2,12.9-17.6,16.3-28.2c2-6.1-7.6-8.8-9.6-2.7c-2.9,8.9-7.5,16.8-13.7,23.8
					C1023.8,1780.2,1030.8,1787.3,1035.1,1782.5z"/>
				<path class="st44" d="M903.4,1965.5c14,4.8,27.9,9.5,41.9,14.3c6.1,2.1,8.7-7.6,2.7-9.6c-14-4.8-27.9-9.5-41.9-14.3
					C899.9,1953.8,897.3,1963.4,903.4,1965.5z"/>
				<path class="st44" d="M928.1,1777.6c3.6-6.7,7.3-13.4,10.9-20.1c3.1-5.7-5.6-10.7-8.6-5c-3.6,6.7-7.3,13.4-10.9,20.1
					C916.4,1778.2,925,1783.3,928.1,1777.6z"/>
			</g>
		</g>
		<g>
			<path class="st2" d="M432.2,429.5c0,0-0.1-0.1-0.1-0.1c0,0,0.1-0.1,0.1-0.1c10.5-6.1,14-15,10-21.9c-4-7-13.5-8.4-24-2.3
				c0,0-0.1,0.1-0.1,0.1c0-0.1,0-0.1,0-0.2c0-12.1-6-19.6-14-19.6c-8,0-14,7.5-14,19.6c0,0.1,0,0.1,0,0.2c0,0-0.1-0.1-0.1-0.1
				c-10.5-6.1-20-4.6-24,2.3c-4,7-0.5,15.8,10,21.9c0,0,0.1,0.1,0.1,0.1c0,0-0.1,0.1-0.1,0.1c-10.5,6.1-14,15-10,21.9
				c4,7,13.5,8.4,24,2.3c0,0,0.1-0.1,0.1-0.1c0,0.1,0,0.1,0,0.2c0,12.1,6,19.6,14,19.6c8,0,14-7.5,14-19.6c0-0.1,0-0.1,0-0.2
				c0,0,0.1,0.1,0.1,0.1c10.5,6.1,20,4.6,24-2.3C446.2,444.4,442.7,435.5,432.2,429.5z"/>
			<g>
				<path class="st1" d="M404.1,412.4c-1.2,0-2.2,2.2-2.2,5.7s1.9,7,2.2,7c0.2,0,2.2-3.5,2.2-7S405.4,412.4,404.1,412.4z"/>
				<path class="st1" d="M389.4,420.8c-0.6,1.1,0.8,3,3.8,4.7c3,1.8,7.1,1.8,7.2,1.6c0.1-0.2-2-3.6-5-5.4
					C392.3,420,390,419.8,389.4,420.8z"/>
				<path class="st1" d="M389.3,437.9c0.6,1.1,2.9,0.8,6-0.9s5.1-5.2,5-5.4c-0.1-0.2-4.1-0.1-7.2,1.6
					C390.1,434.9,388.7,436.8,389.3,437.9z"/>
				<path class="st1" d="M404,446.4c1.2,0,2.2-2.2,2.2-5.7s-1.9-7-2.2-7s-2.2,3.5-2.2,7S402.8,446.4,404,446.4z"/>
				<path class="st1" d="M418.8,437.9c0.6-1.1-0.8-3-3.8-4.7c-3-1.8-7.1-1.8-7.2-1.6c-0.1,0.2,2,3.6,5,5.4S418.2,439,418.8,437.9z"
					/>
				<path class="st1" d="M418.9,420.9c-0.6-1.1-2.9-0.8-6,0.9c-3,1.8-5.1,5.2-5,5.4c0.1,0.2,4.1,0.1,7.2-1.6S419.5,422,418.9,420.9z
					"/>
			</g>
		</g>
		<g>
			<path class="st2" d="M1108.7,238.6c-0.1,0-0.1-0.1-0.2-0.1c0.1,0,0.1-0.1,0.2-0.1c14.9-8.6,19.9-21.2,14.2-31.1
				c-5.7-9.9-19.1-11.9-34-3.3c-0.1,0-0.1,0.1-0.2,0.1c0-0.1,0-0.1,0-0.2c0-17.2-8.4-27.8-19.8-27.8s-19.8,10.6-19.8,27.8
				c0,0.1,0,0.1,0,0.2c-0.1,0-0.1-0.1-0.2-0.1c-14.9-8.6-28.3-6.6-34,3.3c-5.7,9.9-0.8,22.5,14.2,31.1c0.1,0,0.1,0.1,0.2,0.1
				c-0.1,0-0.1,0.1-0.2,0.1c-14.9,8.6-19.9,21.2-14.2,31.1c5.7,9.9,19.1,11.9,34,3.3c0.1,0,0.1-0.1,0.2-0.1c0,0.1,0,0.1,0,0.2
				c0,17.2,8.4,27.8,19.8,27.8c11.4,0,19.8-10.6,19.8-27.8c0-0.1,0-0.1,0-0.2c0.1,0,0.1,0.1,0.2,0.1c14.9,8.6,28.3,6.6,34-3.3
				C1128.5,259.8,1123.6,247.2,1108.7,238.6z"/>
			<g>
				<path class="st1" d="M1068.9,214.3c-1.8,0-3.1,3.1-3.1,8c0,5,2.7,10,3.1,10c0.3,0,3.1-5,3.1-10
					C1071.9,217.4,1070.6,214.3,1068.9,214.3z"/>
				<path class="st1" d="M1047.9,226.4c-0.9,1.5,1.1,4.2,5.4,6.7c4.3,2.5,10,2.6,10.2,2.3c0.2-0.3-2.8-5.2-7.1-7.7
					C1052.1,225.2,1048.8,224.8,1047.9,226.4z"/>
				<path class="st1" d="M1047.8,250.5c0.9,1.5,4.2,1.1,8.5-1.3c4.3-2.5,7.3-7.4,7.1-7.7c-0.2-0.3-5.9-0.2-10.2,2.3
					C1048.9,246.3,1047,249,1047.8,250.5z"/>
				<path class="st1" d="M1068.7,262.7c1.8,0,3.1-3.1,3.1-8c0-5-2.7-10-3.1-10c-0.3,0-3.1,5-3.1,10
					C1065.7,259.6,1067,262.7,1068.7,262.7z"/>
				<path class="st1" d="M1089.7,250.6c0.9-1.5-1.1-4.2-5.4-6.7c-4.3-2.5-10-2.6-10.2-2.3c-0.2,0.3,2.8,5.2,7.1,7.7
					S1088.8,252.2,1089.7,250.6z"/>
				<path class="st1" d="M1089.8,226.5c-0.9-1.5-4.2-1.1-8.5,1.3s-7.3,7.4-7.1,7.7c0.2,0.3,5.9,0.2,10.2-2.3
					C1088.6,230.7,1090.6,228,1089.8,226.5z"/>
			</g>
		</g>
		<g>
			<path class="st2" d="M1569.8,849.4c0,0-0.1-0.1-0.1-0.1c0,0,0.1-0.1,0.1-0.1c10.5-6.1,14-15,10-21.9c-4-7-13.5-8.4-24-2.3
				c0,0-0.1,0.1-0.1,0.1c0-0.1,0-0.1,0-0.2c0-12.1-6-19.6-14-19.6c-8,0-14,7.5-14,19.6c0,0.1,0,0.1,0,0.2c0,0-0.1-0.1-0.1-0.1
				c-10.5-6.1-20-4.6-24,2.3c-4,7-0.5,15.8,10,21.9c0,0,0.1,0.1,0.1,0.1c0,0-0.1,0.1-0.1,0.1c-10.5,6.1-14,15-10,21.9
				c4,7,13.5,8.4,24,2.3c0,0,0.1-0.1,0.1-0.1c0,0.1,0,0.1,0,0.2c0,12.1,6,19.6,14,19.6c8,0,14-7.5,14-19.6c0-0.1,0-0.1,0-0.2
				c0,0,0.1,0.1,0.1,0.1c10.5,6.1,20,4.6,24-2.3C1583.9,864.3,1580.4,855.4,1569.8,849.4z"/>
			<g>
				<path class="st1" d="M1541.8,832.3c-1.2,0-2.2,2.2-2.2,5.7c0,3.5,1.9,7,2.2,7s2.2-3.5,2.2-7C1544,834.4,1543,832.3,1541.8,832.3
					z"/>
				<path class="st1" d="M1527,840.7c-0.6,1.1,0.8,3,3.8,4.7c3,1.8,7.1,1.8,7.2,1.6c0.1-0.2-2-3.6-5-5.4S1527.6,839.7,1527,840.7z"
					/>
				<path class="st1" d="M1527,857.8c0.6,1.1,2.9,0.8,6-0.9s5.1-5.2,5-5.4s-4.1-0.1-7.2,1.6S1526.3,856.7,1527,857.8z"/>
				<path class="st1" d="M1541.7,866.3c1.2,0,2.2-2.2,2.2-5.7c0-3.5-1.9-7-2.2-7c-0.2,0-2.2,3.5-2.2,7
					C1539.5,864.2,1540.4,866.3,1541.7,866.3z"/>
				<path class="st1" d="M1556.5,857.9c0.6-1.1-0.8-3-3.8-4.7c-3-1.8-7.1-1.8-7.2-1.6c-0.1,0.2,2,3.6,5,5.4
					S1555.8,858.9,1556.5,857.9z"/>
				<path class="st1" d="M1556.5,840.8c-0.6-1.1-2.9-0.8-6,0.9c-3,1.8-5.1,5.2-5,5.4c0.1,0.2,4.1,0.1,7.2-1.6
					C1555.7,843.8,1557.1,841.9,1556.5,840.8z"/>
			</g>
		</g>
		<g>
			<path class="st2" d="M539.2,922.8c0,0-0.1-0.1-0.1-0.1c0,0,0.1-0.1,0.1-0.1c10.5-6.1,14-15,10-21.9c-4-7-13.5-8.4-24-2.3
				c0,0-0.1,0.1-0.1,0.1c0-0.1,0-0.1,0-0.2c0-12.1-6-19.6-14-19.6c-8,0-14,7.5-14,19.6c0,0.1,0,0.1,0,0.2c0,0-0.1-0.1-0.1-0.1
				c-10.5-6.1-20-4.6-24,2.3c-4,7-0.5,15.8,10,21.9c0,0,0.1,0.1,0.1,0.1c0,0-0.1,0.1-0.1,0.1c-10.5,6.1-14,15-10,21.9
				c4,7,13.5,8.4,24,2.3c0,0,0.1-0.1,0.1-0.1c0,0.1,0,0.1,0,0.2c0,12.1,6,19.6,14,19.6c8,0,14-7.5,14-19.6c0-0.1,0-0.1,0-0.2
				c0,0,0.1,0.1,0.1,0.1c10.5,6.1,20,4.6,24-2.3S549.7,928.9,539.2,922.8z"/>
			<g>
				<path class="st1" d="M511.1,905.7c-1.2,0-2.2,2.2-2.2,5.7c0,3.5,1.9,7,2.2,7c0.2,0,2.2-3.5,2.2-7
					C513.3,907.9,512.4,905.7,511.1,905.7z"/>
				<path class="st1" d="M496.3,914.2c-0.6,1.1,0.8,3,3.8,4.7s7.1,1.8,7.2,1.6c0.1-0.2-2-3.6-5-5.4S497,913.1,496.3,914.2z"/>
				<path class="st1" d="M496.3,931.2c0.6,1.1,2.9,0.8,6-0.9c3-1.8,5.1-5.2,5-5.4c-0.1-0.2-4.1-0.1-7.2,1.6S495.7,930.2,496.3,931.2
					z"/>
				<path class="st1" d="M511,939.8c1.2,0,2.2-2.2,2.2-5.7c0-3.5-1.9-7-2.2-7s-2.2,3.5-2.2,7C508.8,937.6,509.8,939.8,511,939.8z"/>
				<path class="st1" d="M525.8,931.3c0.6-1.1-0.8-3-3.8-4.7c-3-1.8-7.1-1.8-7.2-1.6c-0.1,0.2,2,3.6,5,5.4
					C522.8,932.1,525.2,932.4,525.8,931.3z"/>
				<path class="st1" d="M525.8,914.3c-0.6-1.1-2.9-0.8-6,0.9c-3,1.8-5.1,5.2-5,5.4c0.1,0.2,4.1,0.1,7.2-1.6
					S526.5,915.4,525.8,914.3z"/>
			</g>
		</g>
		<g>
			<path class="st3" d="M449.1,713.1c0,0,0-0.1,0-0.1c0,0,0.1,0.1,0.1,0.1c6.7,8.2,14.9,10,20.3,5.6c5.5-4.4,5.4-12.8-1.3-21
				c0,0-0.1-0.1-0.1-0.1c0,0,0.1,0,0.1,0c10.5-1.7,16.1-7.9,15-14.8c-1.1-6.9-8.4-11-18.9-9.4c0,0-0.1,0-0.1,0c0,0,0-0.1,0.1-0.1
				c3.8-9.9,1.2-17.9-5.3-20.4c-6.6-2.5-13.8,1.7-17.6,11.7c0,0,0,0.1,0,0.1c0,0-0.1-0.1-0.1-0.1c-6.7-8.2-14.9-10-20.3-5.6
				c-5.5,4.4-5.4,12.8,1.3,21c0,0,0.1,0.1,0.1,0.1c0,0-0.1,0-0.1,0c-10.5,1.7-16.1,7.9-15,14.8c1.1,6.9,8.4,11,18.9,9.4
				c0,0,0.1,0,0.1,0c0,0,0,0.1-0.1,0.1c-3.8,9.9-1.2,17.9,5.3,20.4C438.1,727.3,445.3,723,449.1,713.1z"/>
			<g>
				<path class="st1" d="M460,686.5c-0.2-1.1-2.2-1.6-5.2-1.1s-5.8,2.6-5.8,2.8c0,0.2,3.3,1.4,6.4,0.9
					C458.4,688.7,460.1,687.6,460,686.5z"/>
				<path class="st1" d="M450.6,674.9c-1-0.4-2.4,1.1-3.5,3.9c-1.1,2.9-0.6,6.4-0.4,6.4s2.9-2.2,4-5.1
					C451.7,677.3,451.6,675.3,450.6,674.9z"/>
				<path class="st1" d="M435.9,677.2c-0.8,0.7-0.3,2.7,1.6,5c1.9,2.4,5.2,3.7,5.4,3.6c0.2-0.1-0.5-3.6-2.4-6
					C438.5,677.5,436.7,676.5,435.9,677.2z"/>
				<path class="st1" d="M430.5,691.1c0.2,1.1,2.2,1.6,5.2,1.1s5.8-2.6,5.8-2.8s-3.3-1.4-6.4-0.9C432.1,689,430.4,690.1,430.5,691.1
					z"/>
				<path class="st1" d="M439.9,702.7c1,0.4,2.4-1.1,3.5-3.9c1.1-2.9,0.6-6.4,0.4-6.4c-0.2-0.1-2.9,2.2-4,5.1
					C438.8,700.3,438.9,702.3,439.9,702.7z"/>
				<path class="st1" d="M454.6,700.4c0.8-0.7,0.3-2.7-1.6-5c-1.9-2.4-5.2-3.7-5.4-3.6c-0.2,0.1,0.5,3.6,2.4,6
					S453.8,701.1,454.6,700.4z"/>
			</g>
		</g>
		<g>
			<path class="st3" d="M1215.2,286.3c0,0,0-0.1,0-0.1c0,0,0.1,0.1,0.1,0.1c6.7,8.2,14.9,10,20.3,5.6c5.5-4.4,5.4-12.8-1.3-21
				c0,0-0.1-0.1-0.1-0.1c0,0,0.1,0,0.1,0c10.5-1.7,16.1-7.9,15-14.8c-1.1-6.9-8.4-11-18.9-9.4c0,0-0.1,0-0.1,0c0,0,0-0.1,0.1-0.1
				c3.8-9.9,1.2-17.9-5.3-20.4c-6.6-2.5-13.8,1.7-17.6,11.7c0,0,0,0.1,0,0.1c0,0-0.1-0.1-0.1-0.1c-6.7-8.2-14.9-10-20.3-5.6
				c-5.5,4.4-5.4,12.8,1.3,21c0,0,0.1,0.1,0.1,0.1c0,0-0.1,0-0.1,0c-10.5,1.7-16.1,7.9-15,14.8c1.1,6.9,8.4,11,18.9,9.4
				c0,0,0.1,0,0.1,0c0,0,0,0.1-0.1,0.1c-3.8,9.9-1.2,17.9,5.3,20.4C1204.2,300.5,1211.4,296.2,1215.2,286.3z"/>
			<g>
				<path class="st1" d="M1226.1,259.7c-0.2-1.1-2.2-1.6-5.2-1.1c-3,0.5-5.8,2.6-5.8,2.8c0,0.2,3.3,1.4,6.4,0.9
					S1226.3,260.8,1226.1,259.7z"/>
				<path class="st1" d="M1216.7,248.1c-1-0.4-2.4,1.1-3.5,3.9c-1.1,2.9-0.6,6.4-0.4,6.4c0.2,0.1,2.9-2.2,4-5.1
					S1217.8,248.5,1216.7,248.1z"/>
				<path class="st1" d="M1202,250.4c-0.8,0.7-0.3,2.7,1.6,5c1.9,2.4,5.2,3.7,5.4,3.6c0.2-0.1-0.5-3.6-2.4-6
					C1204.7,250.7,1202.9,249.7,1202,250.4z"/>
				<path class="st1" d="M1196.7,264.3c0.2,1.1,2.2,1.6,5.2,1.1c3-0.5,5.8-2.6,5.8-2.8c0-0.2-3.3-1.4-6.4-0.9
					S1196.5,263.2,1196.7,264.3z"/>
				<path class="st1" d="M1206,275.9c1,0.4,2.4-1.1,3.5-3.9c1.1-2.9,0.6-6.4,0.4-6.4c-0.2-0.1-2.9,2.2-4,5.1
					C1204.9,273.5,1205,275.5,1206,275.9z"/>
				<path class="st1" d="M1220.8,273.6c0.8-0.7,0.3-2.7-1.6-5c-1.9-2.4-5.2-3.7-5.4-3.6c-0.2,0.1,0.5,3.6,2.4,6
					C1218.1,273.3,1219.9,274.3,1220.8,273.6z"/>
			</g>
		</g>
		<g>
			<path class="st3" d="M1579.1,1140.8c0,0,0-0.1,0-0.1c0,0,0,0.1,0.1,0.1c5.8,7.2,13,8.7,17.7,4.9c4.8-3.9,4.7-11.2-1.2-18.3
				c0,0-0.1-0.1-0.1-0.1c0,0,0.1,0,0.1,0c9.2-1.5,14.1-6.9,13.1-12.9c-1-6.1-7.3-9.6-16.5-8.2c0,0-0.1,0-0.1,0c0,0,0-0.1,0-0.1
				c3.3-8.7,1.1-15.6-4.6-17.8c-5.7-2.2-12,1.5-15.3,10.2c0,0,0,0.1,0,0.1c0,0,0-0.1-0.1-0.1c-5.8-7.2-13-8.7-17.7-4.9
				c-4.8,3.9-4.7,11.2,1.2,18.3c0,0,0.1,0.1,0.1,0.1c0,0-0.1,0-0.1,0c-9.2,1.5-14.1,6.9-13.1,12.9c1,6.1,7.3,9.6,16.5,8.2
				c0,0,0.1,0,0.1,0c0,0,0,0.1,0,0.1c-3.3,8.7-1.1,15.6,4.6,17.8C1569.5,1153.2,1575.8,1149.5,1579.1,1140.8z"/>
			<g>
				<path class="st1" d="M1588.6,1117.6c-0.2-0.9-1.9-1.4-4.5-1c-2.6,0.4-5.1,2.3-5,2.5c0,0.2,2.9,1.2,5.6,0.8
					C1587.2,1119.5,1588.7,1118.6,1588.6,1117.6z"/>
				<path class="st1" d="M1580.4,1107.5c-0.9-0.3-2.1,0.9-3.1,3.4c-1,2.5-0.5,5.5-0.4,5.6c0.2,0.1,2.5-1.9,3.5-4.4
					C1581.4,1109.7,1581.3,1107.9,1580.4,1107.5z"/>
				<path class="st1" d="M1567.6,1109.6c-0.7,0.6-0.2,2.3,1.4,4.4c1.7,2.1,4.5,3.2,4.7,3.1c0.1-0.1-0.4-3.1-2.1-5.2
					C1569.9,1109.8,1568.3,1109,1567.6,1109.6z"/>
				<path class="st1" d="M1562.9,1121.7c0.2,0.9,1.9,1.4,4.5,1c2.6-0.4,5.1-2.3,5-2.5c0-0.2-2.9-1.2-5.6-0.8
					C1564.2,1119.8,1562.7,1120.7,1562.9,1121.7z"/>
				<path class="st1" d="M1571.1,1131.8c0.9,0.3,2.1-0.9,3.1-3.4c1-2.5,0.5-5.5,0.4-5.6c-0.2-0.1-2.5,1.9-3.5,4.4
					C1570.1,1129.7,1570.2,1131.5,1571.1,1131.8z"/>
				<path class="st1" d="M1583.9,1129.8c0.7-0.6,0.2-2.3-1.4-4.4s-4.5-3.2-4.7-3.1c-0.1,0.1,0.4,3.1,2.1,5.2
					C1581.6,1129.5,1583.2,1130.4,1583.9,1129.8z"/>
			</g>
		</g>
		<g>
			<path class="st3" d="M1604.7,591.4c0,0,0-0.1,0-0.1c0,0,0.1,0.1,0.1,0.1c6.7,8.2,14.9,10,20.3,5.6c5.5-4.4,5.4-12.8-1.3-21
				c0,0-0.1-0.1-0.1-0.1c0,0,0.1,0,0.1,0c10.5-1.7,16.1-7.9,15-14.8c-1.1-6.9-8.4-11-18.9-9.4c0,0-0.1,0-0.1,0c0,0,0-0.1,0.1-0.1
				c3.8-9.9,1.2-17.9-5.3-20.4c-6.6-2.5-13.8,1.7-17.6,11.7c0,0,0,0.1,0,0.1c0,0-0.1-0.1-0.1-0.1c-6.7-8.2-14.9-10-20.3-5.6
				c-5.5,4.4-5.4,12.8,1.3,21c0,0,0.1,0.1,0.1,0.1c0,0-0.1,0-0.1,0c-10.5,1.7-16.1,7.9-15,14.8c1.1,6.9,8.4,11,18.9,9.4
				c0,0,0.1,0,0.1,0c0,0,0,0.1-0.1,0.1c-3.8,9.9-1.2,17.9,5.3,20.4C1593.7,605.6,1600.9,601.3,1604.7,591.4z"/>
			<g>
				<path class="st1" d="M1615.6,564.8c-0.2-1.1-2.2-1.6-5.2-1.1c-3,0.5-5.8,2.6-5.8,2.8c0,0.2,3.3,1.4,6.4,0.9
					S1615.8,565.8,1615.6,564.8z"/>
				<path class="st1" d="M1606.2,553.2c-1-0.4-2.4,1.1-3.5,3.9c-1.1,2.9-0.6,6.4-0.4,6.4s2.9-2.2,4-5.1S1607.3,553.6,1606.2,553.2z"
					/>
				<path class="st1" d="M1591.5,555.5c-0.8,0.7-0.3,2.7,1.6,5s5.2,3.7,5.4,3.6c0.2-0.1-0.5-3.6-2.4-6
					C1594.2,555.8,1592.4,554.8,1591.5,555.5z"/>
				<path class="st1" d="M1586.2,569.4c0.2,1.1,2.2,1.6,5.2,1.1c3-0.5,5.8-2.6,5.8-2.8c0-0.2-3.3-1.4-6.4-0.9
					S1586,568.3,1586.2,569.4z"/>
				<path class="st1" d="M1595.5,581c1,0.4,2.4-1.1,3.5-3.9s0.6-6.4,0.4-6.4c-0.2-0.1-2.9,2.2-4,5.1
					C1594.4,578.6,1594.5,580.6,1595.5,581z"/>
				<path class="st1" d="M1610.3,578.7c0.8-0.7,0.3-2.7-1.6-5c-1.9-2.4-5.2-3.7-5.4-3.6c-0.2,0.1,0.5,3.6,2.4,6
					C1607.6,578.4,1609.4,579.4,1610.3,578.7z"/>
			</g>
		</g>
		<g>
			
				<radialGradient id="SVGID_34_" cx="-1287.502" cy="-1277.9095" r="68.9337" gradientTransform="matrix(0.1586 0.9873 -0.9873 0.1586 -704.9071 2278.5642)" gradientUnits="userSpaceOnUse">
				<stop  offset="0" style="stop-color:#F2E1C7"/>
				<stop  offset="0.5737" style="stop-color:#F7E7CE"/>
				<stop  offset="1" style="stop-color:#FDEED7"/>
			</radialGradient>
			<path class="st45" d="M359.9,850.4c0-0.1,0.1-0.2,0.1-0.2c0.1,0.1,0.1,0.1,0.2,0.2c12.6,15.5,28,18.8,38.2,10.5
				c10.2-8.3,10.1-24-2.5-39.5c-0.1-0.1-0.1-0.1-0.2-0.2c0.1,0,0.2,0,0.3,0c19.7-3.2,30.3-14.8,28.2-27.8
				c-2.1-13-15.8-20.8-35.5-17.6c-0.1,0-0.2,0-0.3,0c0-0.1,0.1-0.2,0.1-0.2c7.1-18.7,2.3-33.6-10-38.3c-12.3-4.7-25.9,3.3-33,21.9
				c0,0.1-0.1,0.2-0.1,0.2c-0.1-0.1-0.1-0.1-0.2-0.2c-12.6-15.5-28-18.8-38.2-10.5c-10.2,8.3-10.1,24,2.5,39.5
				c0.1,0.1,0.1,0.1,0.2,0.2c-0.1,0-0.2,0-0.3,0c-19.7,3.2-30.3,14.8-28.2,27.8c2.1,13,15.8,20.8,35.5,17.6c0.1,0,0.2,0,0.3,0
				c0,0.1-0.1,0.2-0.1,0.2c-7.1,18.7-2.3,33.6,10,38.3C339.2,877,352.8,869,359.9,850.4z"/>
			<g>
				<path class="st1" d="M380.3,800.3c-0.3-2-4.1-3-9.8-2c-5.7,0.9-10.9,5-10.9,5.4c0.1,0.4,6.3,2.6,12,1.7S380.7,802.4,380.3,800.3
					z"/>
				<path class="st1" d="M362.7,778.6c-1.9-0.7-4.6,2-6.6,7.4s-1.1,11.9-0.8,12.1s5.4-4.1,7.5-9.5
					C364.8,783.1,364.6,779.3,362.7,778.6z"/>
				<path class="st1" d="M335.1,782.9c-1.6,1.3-0.5,5,3.1,9.5c3.6,4.5,9.8,7,10.1,6.7c0.3-0.2-0.9-6.8-4.5-11.2
					C340.1,783.4,336.6,781.6,335.1,782.9z"/>
				<path class="st1" d="M325,809.1c0.3,2,4.1,3,9.8,2c5.7-0.9,10.9-5,10.9-5.4c-0.1-0.4-6.3-2.6-12-1.7S324.7,807,325,809.1z"/>
				<path class="st1" d="M342.6,830.9c1.9,0.7,4.6-2,6.6-7.4c2.1-5.4,1.1-11.9,0.8-12.1c-0.4-0.1-5.4,4.1-7.5,9.5
					C340.5,826.3,340.7,830.1,342.6,830.9z"/>
				<path class="st1" d="M370.3,826.5c1.6-1.3,0.5-5-3.1-9.5c-3.6-4.5-9.8-7-10.1-6.7c-0.3,0.2,0.9,6.8,4.5,11.2
					C365.3,826,368.7,827.8,370.3,826.5z"/>
			</g>
		</g>
		<g>
			
				<radialGradient id="SVGID_35_" cx="-924.9949" cy="-2355.8381" r="68.9337" gradientTransform="matrix(0.1586 0.9873 -0.9873 0.1586 -704.9071 2278.5642)" gradientUnits="userSpaceOnUse">
				<stop  offset="0" style="stop-color:#F2E1C7"/>
				<stop  offset="0.5737" style="stop-color:#F7E7CE"/>
				<stop  offset="1" style="stop-color:#FDEED7"/>
			</radialGradient>
			<path class="st46" d="M1481.6,1037.4c0-0.1,0.1-0.2,0.1-0.2c0.1,0.1,0.1,0.1,0.2,0.2c12.6,15.5,28,18.8,38.2,10.5
				c10.2-8.3,10.1-24-2.5-39.5c-0.1-0.1-0.1-0.1-0.2-0.2c0.1,0,0.2,0,0.3,0c19.7-3.2,30.3-14.8,28.2-27.8
				c-2.1-13-15.8-20.8-35.5-17.6c-0.1,0-0.2,0-0.3,0c0-0.1,0.1-0.2,0.1-0.2c7.1-18.7,2.3-33.6-10-38.3c-12.3-4.7-25.9,3.3-33,21.9
				c0,0.1-0.1,0.2-0.1,0.2c-0.1-0.1-0.1-0.1-0.2-0.2c-12.6-15.5-28-18.8-38.2-10.5c-10.2,8.3-10.1,24,2.5,39.5
				c0.1,0.1,0.1,0.1,0.2,0.2c-0.1,0-0.2,0-0.3,0c-19.7,3.2-30.3,14.8-28.2,27.8c2.1,13,15.8,20.8,35.5,17.6c0.1,0,0.2,0,0.3,0
				c0,0.1-0.1,0.2-0.1,0.2c-7.1,18.7-2.3,33.6,10,38.3C1461,1064,1474.5,1056,1481.6,1037.4z"/>
			<g>
				<path class="st1" d="M1502.1,987.3c-0.3-2-4.1-3-9.8-2c-5.7,0.9-10.9,5-10.9,5.4c0.1,0.4,6.3,2.6,12,1.7
					C1499.2,991.4,1502.4,989.4,1502.1,987.3z"/>
				<path class="st1" d="M1484.5,965.5c-1.9-0.7-4.6,2-6.6,7.4s-1.1,11.9-0.8,12.1c0.4,0.1,5.4-4.1,7.5-9.5
					S1486.4,966.3,1484.5,965.5z"/>
				<path class="st1" d="M1456.8,969.9c-1.6,1.3-0.5,5,3.1,9.5c3.6,4.5,9.8,7,10.1,6.7s-0.9-6.8-4.5-11.2
					C1461.8,970.4,1458.4,968.6,1456.8,969.9z"/>
				<path class="st1" d="M1446.8,996.1c0.3,2,4.1,3,9.8,2c5.7-0.9,10.9-5,10.9-5.4c-0.1-0.4-6.3-2.6-12-1.7
					C1449.7,992,1446.4,994,1446.8,996.1z"/>
				<path class="st1" d="M1464.4,1017.8c1.9,0.7,4.6-2,6.6-7.4s1.1-11.9,0.8-12.1c-0.4-0.1-5.4,4.1-7.5,9.5
					C1462.3,1013.3,1462.5,1017.1,1464.4,1017.8z"/>
				<path class="st1" d="M1492.1,1013.5c1.6-1.3,0.5-5-3.1-9.5c-3.6-4.5-9.8-7-10.1-6.7c-0.3,0.2,0.9,6.8,4.5,11.2
					C1487.1,1013,1490.5,1014.8,1492.1,1013.5z"/>
			</g>
		</g>
		<g>
			
				<radialGradient id="SVGID_36_" cx="-1452.1023" cy="-2488.9705" r="53.839" gradientTransform="matrix(0.1586 0.9873 -0.9873 0.1586 -704.9071 2278.5642)" gradientUnits="userSpaceOnUse">
				<stop  offset="0" style="stop-color:#F2E1C7"/>
				<stop  offset="0.5737" style="stop-color:#F7E7CE"/>
				<stop  offset="1" style="stop-color:#FDEED7"/>
			</radialGradient>
			<path class="st47" d="M1527.9,485.8c0-0.1,0-0.1,0.1-0.2c0,0.1,0.1,0.1,0.1,0.2c9.8,12.1,21.8,14.7,29.8,8.2
				c8-6.5,7.9-18.8-2-30.9c0-0.1-0.1-0.1-0.1-0.2c0.1,0,0.1,0,0.2,0c15.4-2.5,23.7-11.5,22-21.7c-1.6-10.2-12.3-16.2-27.7-13.7
				c-0.1,0-0.1,0-0.2,0c0-0.1,0.1-0.1,0.1-0.2c5.6-14.6,1.8-26.3-7.8-29.9s-20.2,2.6-25.8,17.1c0,0.1,0,0.1-0.1,0.2
				c0-0.1-0.1-0.1-0.1-0.2c-9.8-12.1-21.8-14.7-29.8-8.2c-8,6.5-7.9,18.8,2,30.9c0,0.1,0.1,0.1,0.1,0.2c-0.1,0-0.1,0-0.2,0
				c-15.4,2.5-23.7,11.5-22,21.7c1.6,10.2,12.3,16.2,27.7,13.7c0.1,0,0.1,0,0.2,0c0,0.1-0.1,0.1-0.1,0.2
				c-5.6,14.6-1.8,26.3,7.8,29.9C1511.8,506.6,1522.4,500.4,1527.9,485.8z"/>
			<g>
				<path class="st1" d="M1543.9,446.7c-0.3-1.6-3.2-2.3-7.6-1.6c-4.4,0.7-8.5,3.9-8.5,4.2c0,0.3,4.9,2,9.4,1.3
					S1544.2,448.3,1543.9,446.7z"/>
				<path class="st1" d="M1530.2,429.7c-1.5-0.6-3.6,1.6-5.2,5.8c-1.6,4.2-0.9,9.3-0.6,9.4c0.3,0.1,4.2-3.2,5.8-7.4
					C1531.8,433.3,1531.7,430.3,1530.2,429.7z"/>
				<path class="st1" d="M1508.5,433.1c-1.2,1-0.4,3.9,2.4,7.4c2.8,3.5,7.6,5.4,7.9,5.2c0.2-0.2-0.7-5.3-3.5-8.8
					C1512.5,433.5,1509.8,432.1,1508.5,433.1z"/>
				<path class="st1" d="M1500.7,453.6c0.3,1.6,3.2,2.3,7.6,1.6c4.4-0.7,8.5-3.9,8.5-4.2c0-0.3-4.9-2-9.4-1.3
					S1500.4,452,1500.7,453.6z"/>
				<path class="st1" d="M1514.4,470.6c1.5,0.6,3.6-1.6,5.2-5.8c1.6-4.2,0.9-9.3,0.6-9.4c-0.3-0.1-4.2,3.2-5.8,7.4
					S1513,470,1514.4,470.6z"/>
				<path class="st1" d="M1536.1,467.2c1.2-1,0.4-3.9-2.4-7.4c-2.8-3.5-7.6-5.4-7.9-5.2c-0.2,0.2,0.7,5.3,3.5,8.8
					C1532.2,466.8,1534.8,468.2,1536.1,467.2z"/>
			</g>
		</g>
	</g>
</g>
</svg>
